<?xml version="1.0" encoding="UTF-8"?>
<svg width="1752px" height="1417px" viewBox="0 0 1752 1417" version="1.1" xmlns="http://www.w3.org/2000/svg" xmlns:xlink="http://www.w3.org/1999/xlink">
    <title>Group 3</title>
    <g id="Page-1" stroke="none" stroke-width="1" fill="none" fill-rule="evenodd">
        <g id="Group-3" fill="#FFFFFF">
            <g id="iconmonstr-instagram-11" transform="translate(0.000000, 551.000000)" fill-rule="nonzero">
                <path d="M300,54.075 C380.1,54.075 389.6,54.375 421.25,55.825 C502.55,59.525 540.525,98.1 544.225,178.8 C545.675,210.425 545.95,219.925 545.95,300.025 C545.95,380.15 545.65,389.625 544.225,421.25 C540.5,501.875 502.625,540.525 421.25,544.225 C389.6,545.675 380.15,545.975 300,545.975 C219.9,545.975 210.4,545.675 178.775,544.225 C97.275,540.5 59.5,501.75 55.8,421.225 C54.35,389.6 54.05,380.125 54.05,300 C54.05,219.9 54.375,210.425 55.8,178.775 C59.525,98.1 97.4,59.5 178.775,55.8 C210.425,54.375 219.9,54.075 300,54.075 L300,54.075 Z M300,0 C218.525,0 208.325,0.35 176.325,1.8 C67.375,6.8 6.825,67.25 1.825,176.3 C0.35,208.325 0,218.525 0,300 C0,381.475 0.35,391.7 1.8,423.7 C6.8,532.65 67.25,593.2 176.3,598.2 C208.325,599.65 218.525,600 300,600 C381.475,600 391.7,599.65 423.7,598.2 C532.55,593.2 593.25,532.75 598.175,423.7 C599.65,391.7 600,381.475 600,300 C600,218.525 599.65,208.325 598.2,176.325 C593.3,67.475 532.775,6.825 423.725,1.825 C391.7,0.35 381.475,0 300,0 Z M300,145.95 C214.925,145.95 145.95,214.925 145.95,300 C145.95,385.075 214.925,454.075 300,454.075 C385.075,454.075 454.05,385.1 454.05,300 C454.05,214.925 385.075,145.95 300,145.95 Z M300,400 C244.775,400 200,355.25 200,300 C200,244.775 244.775,200 300,200 C355.225,200 400,244.775 400,300 C400,355.25 355.225,400 300,400 Z M460.15,103.875 C440.25,103.875 424.125,120 424.125,139.875 C424.125,159.75 440.25,175.875 460.15,175.875 C480.025,175.875 496.125,159.75 496.125,139.875 C496.125,120 480.025,103.875 460.15,103.875 Z" id="Shape"></path>
            </g>
            <g id="iconmonstr-youtube-1" transform="translate(740.000000, 775.000000)" fill-rule="nonzero">
                <path d="M70.941,0 L109.461,0 L135.89,99.0295316 L160.393,0 L199.2875,0 L154.74875,147.260284 L154.74875,247.761081 L116.4695,247.761081 L116.4695,147.260284 L70.941,0 Z M247.3305,63.4784112 C217.39725,63.4784112 197.54875,83.2736174 197.54875,112.565173 L197.54875,202.151856 C197.54875,234.359191 214.3745,251.131616 247.3305,251.131616 C274.669,251.131616 296.176,232.861176 296.176,202.151856 L296.176,112.565173 C296.176,83.9691247 274.85625,63.4784112 247.3305,63.4784112 Z M261.53475,200.62709 C261.53475,210.578194 256.45225,217.90777 247.30375,217.90777 C237.9145,217.90777 232.48425,210.23044 232.48425,200.62709 L232.48425,115.587954 C232.48425,105.58335 237.08525,98.1735226 246.635,98.1735226 C257.0675,98.1735226 261.53475,105.369348 261.53475,115.587954 L261.53475,200.62709 L261.53475,200.62709 Z M388.0355,65.0031771 L388.0355,203.730122 C383.88925,208.919676 374.6605,217.426265 368.05325,217.426265 C360.804,217.426265 359.01175,212.450713 359.01175,205.121137 L359.01175,65.0031771 L325.03925,65.0031771 L325.03925,217.747268 C325.03925,235.803706 330.54975,250.382608 348.7665,250.382608 C359.0385,250.382608 373.323,245.032552 388.0355,227.56462 L388.0355,247.734331 L422.008,247.734331 L422.008,65.0031771 L388.0355,65.0031771 Z M446.96575,435.708539 C434.98175,435.708539 432.494,444.134876 432.494,456.119001 L432.494,473.747435 L461.089962,473.747435 L461.089962,456.092251 C461.1165,444.322128 458.62875,435.708539 446.96575,435.708539 Z M321.1605,436.77855 C318.9135,437.928812 316.69325,439.69433 314.473,442.075105 L314.473,550.547485 C317.12125,553.383014 319.6625,555.416036 322.15025,556.673299 C327.42,559.348327 335.124,559.535578 338.7085,554.88103 C340.581,552.420004 341.51725,548.434213 341.51725,542.870155 L341.51725,453.015969 C341.51725,447.130908 340.367,442.690361 338.0665,439.64083 C334.13425,434.478026 326.8315,433.91627 321.1605,436.77855 L321.1605,436.77855 Z M450.28275,297.810852 C380.62575,293.076053 154.26725,293.076053 84.71725,297.810852 C9.44275,302.946906 0.56175,348.422379 0,468.129876 C0.56175,587.623371 9.3625,633.312847 84.71725,638.448901 C154.26725,643.1837 380.62575,643.1837 450.28275,638.448901 C525.55725,633.312847 534.43825,587.810623 535,468.129876 C534.43825,348.636382 525.6375,302.946906 450.28275,297.810852 Z M120.61575,583.66433 L84.1555,583.66433 L84.1555,381.967229 L46.438,381.967229 L46.438,347.726872 L158.3065,347.726872 L158.3065,381.967229 L120.589,381.967229 L120.589,583.66433 L120.61575,583.66433 Z M250.24625,583.66433 L217.87875,583.66433 L217.87875,564.45763 C211.9135,571.546454 205.7075,576.95001 199.26075,580.641548 C181.81975,590.646153 157.8785,590.4054 157.8785,555.095032 L157.8785,409.627017 L190.21925,409.627017 L190.21925,543.057407 C190.21925,550.06598 191.9045,554.774029 198.83275,554.774029 C205.14575,554.774029 213.91975,546.668694 217.852,541.746643 L217.852,409.627017 L250.2195,409.627017 L250.2195,583.66433 L250.24625,583.66433 Z M374.821,547.604954 C374.821,569.138929 366.76925,585.884603 345.2355,585.884603 C333.38525,585.884603 323.5145,581.551058 314.49975,570.289191 L314.49975,583.66433 L281.838,583.66433 L281.838,347.726872 L314.49975,347.726872 L314.49975,423.697664 C321.8025,414.789821 331.72675,407.433494 343.28275,407.433494 C366.98325,407.433494 374.84775,427.469453 374.84775,451.063199 L374.84775,547.604954 L374.821,547.604954 Z M494.42025,500.738466 L432.52075,500.738466 L432.52075,533.587808 C432.52075,546.641944 433.64425,557.930562 446.64475,557.930562 C460.314,557.930562 461.1165,548.728466 461.1165,533.587808 L461.1165,521.496682 L494.42025,521.496682 L494.42025,534.577569 C494.42025,568.095668 480.02875,588.425879 445.9225,588.425879 C415.02625,588.425879 399.217,565.902145 399.217,534.577569 L399.217,456.440005 C399.217,426.23894 419.1725,405.239971 448.35675,405.239971 C479.4135,405.239971 494.3935,424.981677 494.3935,456.440005 L494.3935,500.738466 L494.42025,500.738466 Z" id="Shape"></path>
            </g>
            <g id="iconmonstr-spotify-1" transform="translate(1152.000000, 188.000000)">
                <path d="M477.45,265.95 C380.75,208.525 221.25,203.25 128.925,231.275 C114.1,235.775 98.425,227.4 93.95,212.575 C89.45,197.75 97.8,182.075 112.65,177.575 C218.625,145.4 394.775,151.625 506.1,217.7 C519.425,225.625 523.8,242.825 515.9,256.15 C508,269.475 490.775,273.875 477.45,265.95 Z M474.3,351.025 C467.5,362.025 453.125,365.475 442.125,358.725 C361.5,309.175 238.575,294.8 143.175,323.75 C130.825,327.5 117.75,320.525 114,308.175 C110.275,295.8 117.25,282.775 129.6,279 C238.55,245.95 374,261.95 466.6,318.875 C477.6,325.625 481.05,340.05 474.3,351.025 Z M437.575,432.7 C432.2,441.55 420.675,444.325 411.875,438.925 C341.425,395.875 252.75,386.15 148.325,410 C138.275,412.3 128.25,406 125.95,395.95 C123.65,385.875 129.925,375.85 140,373.55 C254.275,347.425 352.3,358.675 431.375,407 C440.2,412.375 442.975,423.9 437.575,432.7 L437.575,432.7 Z M300,0 C134.325,0 0,134.325 0,300 C0,465.7 134.325,600 300,600 C465.7,600 600,465.7 600,300 C600,134.325 465.7,0 300,0 Z" id="Shape"></path>
            </g>
            <g id="iconmonstr-twitter-1" transform="translate(552.000000, 0.000000)" fill-rule="nonzero">
                <path d="M600,57.725 C577.925,67.525 554.2,74.125 529.3,77.1 C554.725,61.875 574.25,37.75 583.425,9 C559.65,23.1 533.3,33.35 505.25,38.875 C482.825,14.95 450.8,0 415.4,0 C335.925,0 277.525,74.15 295.475,151.125 C193.2,146 102.5,97 41.775,22.525 C9.525,77.85 25.05,150.225 79.85,186.875 C59.7,186.225 40.7,180.7 24.125,171.475 C22.775,228.5 63.65,281.85 122.85,293.725 C105.525,298.425 86.55,299.525 67.25,295.825 C82.9,344.725 128.35,380.3 182.25,381.3 C130.5,421.875 65.3,440 0,432.3 C54.475,467.225 119.2,487.6 188.7,487.6 C417.25,487.6 546.375,294.575 538.575,121.45 C562.625,104.075 583.5,82.4 600,57.725 Z" id="Path"></path>
            </g>
        </g>
    </g>
</svg>