<?xml version="1.0" encoding="UTF-8"?>
<svg width="1141px" height="728px" viewBox="0 0 1141 728" version="1.1" xmlns="http://www.w3.org/2000/svg" xmlns:xlink="http://www.w3.org/1999/xlink">
    <title>Group 2</title>
    <g id="Page-1" stroke="none" stroke-width="1" fill="none" fill-rule="evenodd">
        <g id="Group-2" transform="translate(7.000000, 6.000000)" stroke="#FFF" stroke-width="5">
            <g id="Group" stroke-linecap="square">
                <line x1="75.5" y1="112.5" x2="583.5" y2="0.5" id="Line-13"></line>
                <line x1="583.5" y1="99.5" x2="583.5" y2="0.5" id="Line-12"></line>
                <line x1="92.5" y1="220.5" x2="75.5" y2="112.5" id="Line-10"></line>
                <line x1="75.5" y1="112.5" x2="53.5" y2="184.5" id="Line-11"></line>
                <line x1="75.5" y1="256.5" x2="53.5" y2="184.5" id="Line-4"></line>
                <line x1="151.5" y1="714.5" x2="0.5" y2="570.5" id="Line-5"></line>
                <line x1="0.5" y1="570.5" x2="17.5" y2="288.5" id="Line-6"></line>
                <line x1="17.5" y1="288.5" x2="53.5" y2="191.5" id="Line-7"></line>
                <line x1="626.5" y1="191.5" x2="583.5" y2="99.5" id="Line-8"></line>
                <line x1="151.5" y1="714.5" x2="75.5" y2="256.5" id="Line-3"></line>
                <line x1="151.5" y1="714.5" x2="644.5" y2="558.5" id="Line"></line>
                <line x1="644.5" y1="558.5" x2="626.5" y2="191.5" id="Line-2"></line>
                <line x1="92.5" y1="220.5" x2="583.5" y2="99.5" id="Line-9"></line>
            </g>
            <path d="M831.125,556.999 L1106.87847,557.000187 C1105.29856,558.40265 1103.21848,559.739345 1100.87249,561.076252 C1093.66572,565.183158 1083.21639,568.8297 1070.33731,571.917434 C1044.27637,578.165492 1008.48822,582 969,582 C929.146645,582 893.062217,578.094574 866.943743,571.743849 C854.067145,568.612896 843.669712,564.921331 836.587483,560.763937 C834.534798,559.558975 832.684587,558.351976 831.231807,557.092654 L831.125,556.999 Z" id="Combined-Shape"></path>
            <ellipse id="Oval" cx="969" cy="222.5" rx="159" ry="30.5"></ellipse>
            <line x1="828.5" y1="551.5" x2="811" y2="223" id="Line-14" stroke-linecap="square"></line>
            <line x1="1109" y1="552" x2="1128" y2="228" id="Line-15" stroke-linecap="square"></line>
            <line x1="969.5" y1="222.5" x2="969.5" y2="50.5" id="Line-16" stroke-linecap="square"></line>
        </g>
    </g>
</svg>