<?xml version="1.0" encoding="UTF-8"?>
<svg width="1053px" height="750px" viewBox="0 0 1053 750" version="1.1" xmlns="http://www.w3.org/2000/svg" xmlns:xlink="http://www.w3.org/1999/xlink">
    <title>Group</title>
    <g id="Page-1" stroke="none" stroke-width="1" fill="none" fill-rule="evenodd">
        <g id="Group" transform="translate(10.000000, 10.851717)">
            <line x1="75.5" y1="126.648283" x2="583.5" y2="14.6482825" id="Line-13" stroke="#FFFFFF" stroke-width="20" stroke-linecap="round" stroke-linejoin="round"></line>
            <line x1="583.5" y1="113.648283" x2="583.5" y2="14.6482825" id="Line-12" stroke="#FFFFFF" stroke-width="20" stroke-linecap="round" stroke-linejoin="round"></line>
            <line x1="92.5" y1="234.648283" x2="75.5" y2="126.648283" id="Line-10" stroke="#FFFFFF" stroke-width="20" stroke-linecap="round" stroke-linejoin="round"></line>
            <line x1="75.5" y1="126.648283" x2="53.5" y2="198.648283" id="Line-11" stroke="#FFFFFF" stroke-width="20" stroke-linecap="round" stroke-linejoin="round"></line>
            <line x1="75.5" y1="270.648283" x2="53.5" y2="198.648283" id="Line-4" stroke="#FFFFFF" stroke-width="20" stroke-linecap="round" stroke-linejoin="round"></line>
            <line x1="151.5" y1="728.648283" x2="0.5" y2="584.648283" id="Line-5" stroke="#FFFFFF" stroke-width="20" stroke-linecap="round" stroke-linejoin="round"></line>
            <line x1="0.5" y1="584.648283" x2="17.5" y2="302.648283" id="Line-6" stroke="#FFFFFF" stroke-width="20" stroke-linecap="round" stroke-linejoin="round"></line>
            <line x1="17.5" y1="302.648283" x2="53.5" y2="205.648283" id="Line-7" stroke="#FFFFFF" stroke-width="20" stroke-linecap="round" stroke-linejoin="round"></line>
            <line x1="626.5" y1="205.648283" x2="583.5" y2="113.648283" id="Line-8" stroke="#FFFFFF" stroke-width="20" stroke-linecap="round" stroke-linejoin="round"></line>
            <line x1="151.5" y1="728.648283" x2="75.5" y2="270.648283" id="Line-3" stroke="#FFFFFF" stroke-width="20" stroke-linecap="round" stroke-linejoin="round"></line>
            <line x1="151.5" y1="728.648283" x2="644.5" y2="572.648283" id="Line" stroke="#FFFFFF" stroke-width="20" stroke-linecap="round" stroke-linejoin="round"></line>
            <line x1="644.5" y1="572.648283" x2="626.5" y2="205.648283" id="Line-2" stroke="#FFFFFF" stroke-width="20" stroke-linecap="round" stroke-linejoin="round"></line>
            <line x1="92.5" y1="234.648283" x2="583.5" y2="113.648283" id="Line-9"></line>
            <path d="M757.344585,532.90946 C847.475766,579.121875 929.311919,579.121875 1002.85304,532.90946" id="Path-33" stroke="#FFFFFF" stroke-width="20" stroke-linecap="round" stroke-linejoin="round"></path>
            <path d="M1002.85304,532.90946 L1032.89267,174.148283 C924.090336,205.814949 832.240975,205.814949 757.344585,174.148283" id="Path-34" stroke="#FFFFFF" stroke-width="20" stroke-linecap="round" stroke-linejoin="round"></path>
            <line x1="757.344585" y1="174.148283" x2="757.344585" y2="532.90946" id="Path-35" stroke="#FFFFFF" stroke-width="20" stroke-linecap="round" stroke-linejoin="round"></line>
            <path d="M1032.89267,174.148283 C910.757003,133.814949 818.907641,133.814949 757.344585,174.148283" id="Path-36" stroke="#FFFFFF" stroke-width="20" stroke-linecap="round" stroke-linejoin="round"></path>
            <line x1="895.118627" y1="174.148283" x2="895.118627" y2="-5.44858908e-16" id="Path-37" stroke="#FFFFFF" stroke-width="20" stroke-linecap="round" stroke-linejoin="round"></line>
        </g>
    </g>
</svg>