<?xml version="1.0" encoding="UTF-8"?>
<svg width="373px" height="391px" viewBox="0 0 373 391" version="1.1" xmlns="http://www.w3.org/2000/svg" xmlns:xlink="http://www.w3.org/1999/xlink">
    <title>laptop_outline</title>
    <g id="Page-1" stroke="none" stroke-width="1" fill="none" fill-rule="evenodd" stroke-linecap="round" stroke-linejoin="round">
        <g id="laptop_outline" transform="translate(3.000000, 3.000000)" stroke="#FFFFFF" stroke-width="6">
            <polyline id="path2172" points="67.877 254.732954 40.426 271.722954 205.466 368.132954 365.216 212.672954 222.216 159.242954 205.476 169.602954"></polyline>
            <path d="M249.818,169.632954 C149.418,228.552954 211.718,215.072954 73.828,290.702954 L161.598,342.512954 C245.828,320.032954 333.638,271.662954 327.198,198.352954 L267.688,176.242954 L249.818,169.632954 L249.818,169.632954 Z" id="path16273"></path>
            <path d="M40.29,271.692954 L40.421,284.912954 L204.701,384.302954 C207.951,382.552954 209.351,372.222954 205.751,368.122954 L40.29,271.692954 L40.29,271.692954 Z" id="path2174"></path>
            <path d="M365.198,212.752954 C366.178,215.782954 367.228,222.382954 364.358,225.102954 L204.958,384.042954 C209.178,379.212954 207.878,373.602954 205.748,367.862954 L365.198,212.752954 L365.198,212.752954 Z" id="path2176"></path>
            <path d="M204.148,168.382954 C214.918,161.812954 221.558,157.752954 221.558,157.752954 L222.088,1.9129536 L7.088,70.2219536 C7.092,70.2219536 35.547,272.951954 37.655,270.791954 C38.168,270.261954 49.342,263.291954 65.952,253.041954" id="path2178"></path>
            <path d="M6.976,70.0449536 C5.043,68.4379536 3.651,68.2089536 0.016,68.8079536 L215.746,0.483953601 C219.116,-0.661646399 221.056,0.392353601 222.056,1.9181536" id="path2182"></path>
            <polygon id="path3155" points="13.246 82.6389536 219.166 14.9799536 217.686 148.159954 39.006 256.059954 13.244 82.6399536"></polygon>
            <polygon id="path4130" points="242.418 167.022954 64.178 285.002954 55.182 279.972954 234.662 163.942954 242.422 167.022954"></polygon>
            <path d="M85.998,270.472954 L105.538,257.692954 L85.998,270.472954 Z" id="path5126"></path>
            <path d="M232.678,275.282954 L271.458,242.852954 C273.688,240.992954 278.368,240.762954 282.008,242.332954 C282.008,242.332954 301.968,251.472954 301.968,251.472954 C305.838,253.142954 307.318,256.122954 305.238,258.162954 L267.598,291.952954 C265.118,294.392954 259.758,294.742954 255.628,292.742954 L234.828,282.642954 C230.978,280.772954 230.038,277.492954 232.678,275.282954" id="rect2179"></path>
            <path d="M128.428,232.742954 C130.968,230.792954 137.368,234.522954 136.998,236.862954 L128.428,232.742954 Z" id="path5322"></path>
            <path d="M84.668,271.392954 L102.188,259.732954 C100.718,256.732954 97.978,254.572954 93.588,254.972954 L76.168,266.412954 C79.198,264.332954 85.108,268.932954 84.668,271.392954 Z" id="path6299"></path>
            <line x1="84.638" y1="271.482954" x2="76.148" y2="266.422954" id="path4349"></line>
            <path d="M143.538,222.912954 L128.388,232.752954 C131.068,230.632954 137.688,234.882954 136.958,236.872954 L151.758,227.092954" id="path8239"></path>
            <path d="M151.658,227.112954 L166.618,217.362954 C165.588,214.452954 163.088,212.562954 158.088,213.412954 L142.968,223.232954 C145.998,221.902954 151.168,223.572954 151.658,227.112954 Z" id="path8241"></path>
            <path d="M166.558,217.352954 L179.818,208.522954 C178.088,205.832954 175.918,204.712954 171.578,204.852954 L158.018,213.432954 C161.218,212.682954 165.748,213.782954 166.558,217.352954 L166.558,217.352954 Z" id="path8243"></path>
            <path d="M179.868,208.512954 L191.458,200.792954 C189.458,198.292954 187.168,197.232954 183.398,197.242884 L171.528,204.862954 C174.858,204.562954 177.928,205.522954 179.868,208.512954 Z" id="path8245"></path>
            <path d="M191.418,200.822954 L203.148,193.092954 C201.668,189.632954 198.748,189.022954 195.418,189.312954 L183.158,197.382954 C186.128,197.052954 188.788,197.542954 191.418,200.822954 Z" id="path8247"></path>
            <path d="M193.808,279.802954 L243.898,239.502954 C244.508,239.022954 245.748,239.012954 246.688,239.482954 L254.348,243.242954 C255.298,243.722954 255.598,244.492954 255.008,244.982954 L205.668,286.442954 C204.928,287.052954 203.508,287.082954 202.488,286.512954 L194.268,281.892954 C193.258,281.332954 193.058,280.402954 193.808,279.802954" id="rect2202"></path>
            <path d="M274.998,227.402954 L280.498,222.822954 C281.048,222.362954 280.888,221.722954 280.148,221.382954 L272.558,217.862954 C271.778,217.502954 270.678,217.582954 270.108,218.052954 L264.338,222.752954 C263.748,223.232954 263.938,223.892954 264.748,224.242954 L272.608,227.642954 C273.378,227.972954 274.438,227.862954 274.998,227.402954" id="rect3291"></path>
            <path d="M207.488,265.602954 L199.538,261.742954 C198.858,261.412954 197.908,261.452954 197.408,261.842954 L191.618,266.292954 C191.118,266.682954 191.258,267.272954 191.938,267.612954 L199.868,271.562954 C200.568,271.902954 201.538,271.862954 202.048,271.462954 L207.848,266.922954 C208.348,266.532954 208.188,265.942954 207.488,265.602954" id="rect3293"></path>
            <path d="M219.558,204.562954 L227.158,207.852954 C227.708,208.082954 227.808,208.532954 227.368,208.842954 L221.208,213.292954 C220.768,213.612954 219.968,213.672954 219.418,213.432954 L211.838,210.062954 C211.308,209.822954 211.228,209.382954 211.668,209.072954 L217.798,204.712954 C218.238,204.402954 219.018,204.332954 219.558,204.562954" id="rect3299"></path>
            <path d="M183.508,257.812954 L192.818,262.442954 C193.488,262.782954 193.668,263.332954 193.218,263.682954 L186.718,268.672954 C186.248,269.042954 185.318,269.042954 184.638,268.692954 L175.308,263.862954 C174.658,263.522954 174.518,262.972954 174.988,262.622954 L181.508,257.832954 C181.968,257.492954 182.858,257.482954 183.508,257.812954" id="rect3301"></path>
            <path d="M162.918,244.162954 L171.118,248.622954 C171.458,248.812954 171.478,249.132954 171.168,249.352954 L163.908,254.462954 C163.598,254.682954 163.078,254.712954 162.728,254.532954 L154.338,250.212954 C153.978,250.022954 153.938,249.692954 154.248,249.472954 L161.708,244.212954 C162.018,243.982954 162.558,243.962954 162.918,244.162954" id="rect3305"></path>
            <path d="M172.988,312.602954 L163.678,320.452954 C163.208,320.852954 162.418,320.932954 161.898,320.632954 L151.578,314.732954 C151.068,314.442954 151.038,313.882954 151.518,313.492954 L160.988,305.762954 C161.458,305.382954 162.238,305.312954 162.738,305.602954 L172.898,311.382954 C173.398,311.672954 173.448,312.212954 172.988,312.602954" id="rect3309"></path>
            <path d="M199.148,272.502954 L190.588,268.232954 C190.098,267.992954 189.348,268.052954 188.918,268.382954 L181.468,274.122954 C181.018,274.462954 181.068,274.952954 181.568,275.202954 L190.218,279.642954 C190.738,279.912954 191.508,279.832954 191.948,279.482954 L199.308,273.572954 C199.728,273.232954 199.658,272.752954 199.148,272.502954" id="rect3311"></path>
            <path d="M172.998,237.192954 L180.938,241.482954 C181.358,241.702954 181.378,242.112954 180.988,242.392954 L173.418,247.742954 C173.018,248.022954 172.358,248.062954 171.938,247.842954 L164.008,243.502954 C163.588,243.272954 163.578,242.872954 163.978,242.592954 L171.538,237.292954 C171.928,237.012954 172.578,236.972954 172.998,237.192954" id="rect3313"></path>
            <path d="M141.098,305.472954 L158.638,292.052954 C159.868,291.112954 161.328,290.622954 161.928,290.952954 L170.058,295.432954 C170.668,295.762954 170.198,296.802954 169.008,297.762954 L151.968,311.582954 C150.628,312.662954 149.028,313.252954 148.388,312.892954 L139.758,308.032954 C139.118,307.672954 139.718,306.532954 141.098,305.472954" id="rect3317"></path>
            <path d="M164.628,283.992954 L155.388,279.072954 C154.668,278.682954 153.658,278.682954 153.148,279.072954 L146.558,284.022954 C146.018,284.422954 146.178,285.072954 146.908,285.472954 L156.198,290.572954 C156.958,290.982954 157.988,290.982954 158.518,290.562954 L165.058,285.442954 C165.568,285.042954 165.378,284.392954 164.628,283.992954" id="rect3319"></path>
            <path d="M157.258,273.022954 L148.748,268.622954 C148.148,268.312954 147.268,268.332954 146.778,268.682954 L139.708,273.672954 C139.178,274.042954 139.268,274.612954 139.888,274.932954 L148.728,279.532954 C149.358,279.862954 150.278,279.812954 150.778,279.432954 L157.518,274.232954 C157.978,273.872954 157.868,273.332954 157.258,273.022954" id="rect3321"></path>
            <path d="M133.238,265.152954 L141.918,269.732954 C142.338,269.952954 142.388,270.332954 142.038,270.592954 L134.718,275.842954 C134.358,276.102954 133.718,276.132954 133.288,275.902954 L124.448,271.252954 C124.018,271.022954 123.968,270.632954 124.338,270.382954 L131.828,265.192954 C132.188,264.952954 132.818,264.932954 133.238,265.152954" id="rect3323"></path>
            <path d="M192.408,296.342954 L185.308,302.302954 C184.858,302.682954 184.008,302.682954 183.398,302.312954 L174.128,296.582954 C173.578,296.242954 173.488,295.692954 173.918,295.342954 L180.778,289.812954 C181.198,289.472954 181.988,289.452954 182.548,289.762954 L192.068,295.052954 C192.688,295.392954 192.848,295.972954 192.408,296.342954" id="rect3325"></path>
            <path d="M222.298,224.172954 L215.148,220.552954 C214.428,220.182954 213.408,220.212954 212.848,220.612954 L207.178,224.712954 C206.598,225.132954 206.728,225.772954 207.468,226.142954 L214.828,229.862954 C215.568,230.232954 216.608,230.182954 217.168,229.752954 L222.628,225.562954 C223.158,225.152954 223.018,224.532954 222.298,224.172954" id="rect3327"></path>
            <path d="M213.858,230.742954 L206.218,226.952954 C205.548,226.612954 204.588,226.642954 204.078,227.012954 L198.238,231.242954 C197.728,231.612954 197.868,232.172954 198.548,232.492954 L206.248,236.212954 C206.908,236.522954 207.838,236.492954 208.348,236.132954 L214.128,231.982954 C214.638,231.622954 214.508,231.062954 213.858,230.742954" id="rect3329"></path>
            <path d="M263.188,224.792954 L272.058,228.582954 C272.608,228.822954 272.748,229.262954 272.358,229.582954 L265.908,234.812954 C265.518,235.132954 264.768,235.182954 264.228,234.922954 L255.608,230.902954 C255.108,230.672954 255.008,230.232954 255.378,229.932954 L261.578,224.932954 C261.958,224.632954 262.668,224.562954 263.188,224.792954" id="rect3331"></path>
            <path d="M186.778,251.302954 L177.908,246.982954 C177.418,246.742954 176.698,246.782954 176.298,247.062954 L169.098,252.122954 C168.688,252.412954 168.738,252.852954 169.218,253.102954 L177.948,257.672954 C178.468,257.942954 179.218,257.912954 179.638,257.612954 L186.978,252.302954 C187.388,252.002954 187.298,251.552954 186.778,251.302954" id="rect3333"></path>
            <path d="M210.738,210.832954 L218.318,214.192954 C218.868,214.432954 218.928,214.902954 218.448,215.252954 L211.678,220.162954 C211.188,220.512954 210.348,220.602954 209.798,220.352954 L202.148,216.912954 C201.608,216.672954 201.568,216.192954 202.058,215.842954 L208.898,211.012954 C209.378,210.672954 210.198,210.592954 210.738,210.832954" id="rect3335"></path>
            <path d="M201.038,217.732954 L208.738,221.072954 C209.298,221.312954 209.368,221.782954 208.898,222.122954 L202.188,226.952954 C201.698,227.302954 200.858,227.382954 200.298,227.132954 L192.588,223.652954 C192.038,223.402954 191.998,222.932954 192.488,222.592954 L199.208,217.902954 C199.678,217.572954 200.498,217.502954 201.038,217.732954" id="rect3337"></path>
            <path d="M229.268,197.522954 L237.448,201.002954 C237.788,201.152954 237.828,201.452954 237.518,201.682954 L229.958,207.172954 C229.628,207.422954 229.068,207.482954 228.708,207.332954 L220.288,203.702954 C219.928,203.542954 219.918,203.232954 220.258,203.002954 L228.068,197.652954 C228.388,197.432954 228.918,197.382954 229.268,197.522954" id="rect3339"></path>
            <path d="M173.968,264.472954 L184.118,269.652954 C184.568,269.882954 184.678,270.262954 184.348,270.512954 L176.968,276.132954 C176.638,276.382954 176.008,276.402954 175.558,276.162954 L165.358,270.922954 C164.908,270.692954 164.808,270.302954 165.148,270.062954 L172.568,264.502954 C172.898,264.252954 173.518,264.242954 173.968,264.472954" id="rect3341"></path>
            <path d="M191.338,224.232954 L199.538,227.972954 C199.958,228.152954 200.008,228.512954 199.668,228.762954 L192.568,233.962954 C192.208,234.222954 191.578,234.282954 191.158,234.082954 L182.798,230.182954 C182.388,229.982954 182.358,229.622954 182.728,229.362954 L189.968,224.342954 C190.318,224.102954 190.928,224.052954 191.338,224.232954" id="rect3343"></path>
            <path d="M138.228,287.532954 L129.158,282.642954 C128.638,282.362954 127.638,282.552954 126.928,283.062954 C126.928,283.062954 114.378,292.052954 114.378,292.052954 C113.618,292.602954 113.428,293.282954 113.958,293.582954 L123.088,298.792954 C123.638,299.112954 124.678,298.902954 125.438,298.342954 L137.918,289.012954 C138.638,288.482954 138.768,287.822954 138.228,287.532954" id="rect3345"></path>
            <path d="M123.128,271.822954 L132.488,276.742954 C132.798,276.902954 132.838,277.192954 132.578,277.372954 L124.398,283.362954 C124.128,283.562954 123.668,283.582954 123.358,283.412954 L114.088,278.262954 C113.798,278.092954 113.778,277.812954 114.048,277.632954 L122.138,271.882954 C122.398,271.692954 122.838,271.672954 123.128,271.822954" id="rect3349"></path>
            <path d="M147.638,280.272954 L138.918,275.652954 C138.278,275.312954 137.368,275.332954 136.878,275.702954 L130.218,280.662954 C129.718,281.032954 129.838,281.602954 130.478,281.952954 L139.188,286.662954 C139.848,287.012954 140.768,286.992954 141.268,286.622954 L147.938,281.562954 C148.428,281.192954 148.298,280.612954 147.638,280.272954" id="rect3351"></path>
            <path d="M174.088,276.582954 L164.908,271.862954 C164.198,271.502954 163.208,271.522954 162.688,271.912954 L156.098,276.862954 C155.568,277.262954 155.698,277.892954 156.398,278.282954 L165.488,283.272954 C166.238,283.682954 167.278,283.682954 167.828,283.252954 L174.508,278.032954 C175.038,277.612954 174.848,276.972954 174.088,276.582954" id="rect3353"></path>
            <path d="M155.328,291.442954 L145.678,286.362954 C144.998,286.002954 143.598,286.352954 142.538,287.142954 L127.318,298.462954 C126.208,299.292954 125.858,300.262954 126.538,300.642954 L136.218,306.052954 C136.918,306.442954 138.378,306.072954 139.488,305.222954 L154.678,293.572954 C155.738,292.762954 156.028,291.812954 155.328,291.442954" id="rect3355"></path>
            <path d="M153.368,251.012954 L161.648,255.312954 C162.048,255.522954 162.088,255.912954 161.738,256.182954 L154.138,261.952954 C153.758,262.242954 153.108,262.302954 152.688,262.082954 L144.058,257.562954 C143.638,257.342954 143.628,256.942954 144.028,256.662954 L151.978,251.102954 C152.348,250.842954 152.968,250.802954 153.368,251.012954" id="rect3357"></path>
            <path d="M179.418,288.102954 L170.708,283.662954 C170.178,283.392954 169.428,283.442954 169.028,283.762954 L162.528,288.972954 C162.118,289.302954 162.208,289.782954 162.718,290.062954 L171.198,294.672954 C171.748,294.962954 172.518,294.932954 172.938,294.602954 L179.668,289.222954 C180.088,288.892954 179.978,288.382954 179.418,288.102954" id="rect3359"></path>
            <path d="M182.438,304.652954 L175.868,310.122954 C175.198,310.672954 173.978,310.732954 173.128,310.252954 L164.358,305.242954 C163.458,304.722954 163.288,303.842954 163.998,303.272954 L170.998,297.672954 C171.688,297.122954 172.938,297.102954 173.808,297.632954 L182.148,302.772954 C182.958,303.272954 183.088,304.112954 182.438,304.652954" id="rect3361"></path>
            <path d="M201.528,288.702954 L195.158,294.072954 C194.598,294.542954 193.538,294.572954 192.778,294.142954 L183.978,289.192954 C183.218,288.752954 183.058,288.032954 183.628,287.562954 L190.138,282.242954 C190.698,281.782954 191.758,281.762954 192.518,282.192954 L201.158,287.102954 C201.908,287.532954 202.078,288.242954 201.528,288.702954" id="rect3363"></path>
            <path d="M189.168,280.382954 L180.548,276.032954 C180.038,275.772954 179.278,275.822954 178.858,276.142954 L171.628,281.662954 C171.178,282.002954 171.238,282.502954 171.768,282.772954 L180.588,287.352954 C181.128,287.632954 181.918,287.572954 182.358,287.212954 L189.378,281.472954 C189.788,281.132954 189.698,280.652954 189.168,280.382954" id="rect3365"></path>
            <path d="M143.028,258.392954 L151.448,262.742954 C151.928,262.992954 151.998,263.422954 151.598,263.712954 L144.538,268.842954 C144.128,269.132954 143.408,269.162954 142.928,268.912954 L134.438,264.472954 C133.958,264.222954 133.898,263.782954 134.318,263.492954 L141.438,258.462954 C141.838,258.172954 142.548,258.142954 143.028,258.392954" id="rect3367"></path>
            <path d="M176.668,258.332954 L167.948,253.862954 C167.338,253.552954 166.438,253.572954 165.938,253.922954 L158.858,258.922954 C158.348,259.282954 158.438,259.842954 159.068,260.162954 L167.898,264.762954 C168.538,265.092954 169.458,265.062954 169.958,264.692954 L176.928,259.562954 C177.408,259.202954 177.298,258.652954 176.668,258.332954" id="rect3369"></path>
            <path d="M166.718,265.672954 L158.208,261.272954 C157.608,260.962954 156.728,260.982954 156.238,261.332954 L149.168,266.322954 C148.638,266.692954 148.728,267.252954 149.348,267.582954 L158.188,272.182954 C158.828,272.512954 159.738,272.462954 160.238,272.082954 L166.978,266.882954 C167.448,266.522954 167.328,265.982954 166.718,265.672954" id="rect3371"></path>
            <path d="M256.848,242.302954 L263.758,236.582954 C264.048,236.342954 263.958,236.002954 263.558,235.812954 L254.398,231.552954 C254.028,231.372954 253.488,231.412954 253.198,231.642954 L246.338,237.122954 C246.038,237.362954 246.108,237.702954 246.478,237.882954 L255.598,242.402954 C255.988,242.592954 256.548,242.552954 256.848,242.302954" id="rect3373"></path>
            <path d="M238.378,200.232954 L230.338,196.802954 C229.988,196.652954 230.378,196.062954 231.208,195.482954 L248.578,183.342954 C249.288,182.852954 250.128,182.552954 250.458,182.682954 L258.118,185.632954 C258.468,185.772954 258.188,186.292954 257.488,186.812954 L240.498,199.422954 C239.688,200.022954 238.738,200.382954 238.378,200.232954" id="rect3375"></path>
            <path d="M122.168,284.012954 L113.258,279.102954 C112.818,278.852954 112.098,278.932954 111.628,279.262954 L102.318,285.952954 C101.858,286.282954 101.828,286.752954 102.268,287.002954 L111.058,292.002954 C111.508,292.252954 112.238,292.182954 112.708,291.842954 L122.128,285.062954 C122.598,284.732954 122.618,284.262954 122.168,284.012954" id="rect3377"></path>
            <path d="M280.138,194.192954 L262.368,187.302954 C261.158,186.832954 259.608,186.842954 258.928,187.352954 L247.048,196.132954 C246.328,196.652954 246.188,197.112954 247.568,197.492954 L254.328,200.252954 C255.418,200.702954 255.418,200.722954 256.368,200.032954 L257.628,199.112954 C257.908,198.912954 258.738,198.832954 259.628,199.212954 L268.778,203.162954 C269.788,203.442954 270.658,203.522954 271.228,203.082954 L280.758,195.592954 C281.298,195.162954 281.03786,194.542954 280.138,194.192954" id="rect3379"></path>
            <path d="M235.118,244.072954 L226.638,240.162954 C226.208,239.962954 225.588,240.012954 225.248,240.272954 L218.798,245.292954 C218.458,245.562954 218.528,245.942954 218.958,246.152954 L227.368,250.212954 C227.828,250.432954 228.468,250.392954 228.808,250.112954 L235.328,244.932954 C235.668,244.662954 235.568,244.282954 235.118,244.072954" id="rect3381"></path>
            <path d="M196.758,243.702954 L188.528,239.652954 C187.918,239.342954 186.988,239.412954 186.448,239.802954 L179.068,245.062954 C178.518,245.452954 178.578,246.012954 179.198,246.312954 L187.568,250.372954 C188.178,250.672954 189.108,250.592954 189.648,250.202954 L196.888,244.942954 C197.418,244.552954 197.358,244.002954 196.758,243.702954" id="rect3385"></path>
            <path d="M192.918,250.882954 L201.868,255.282954 C202.598,255.642954 202.778,256.242954 202.278,256.632954 L195.908,261.602954 C195.388,262.002954 194.388,262.032954 193.658,261.662954 L184.628,257.122954 C183.908,256.762954 183.758,256.162954 184.288,255.762954 L190.728,250.942954 C191.228,250.562954 192.208,250.542954 192.918,250.882954" id="rect3387"></path>
            <path d="M182.018,231.062954 L189.808,234.642954 C190.408,234.912954 190.528,235.402954 190.078,235.742954 L183.598,240.552954 C183.128,240.902954 182.268,240.942954 181.698,240.632954 L174.158,236.562954 C173.658,236.292954 173.628,235.812954 174.088,235.502954 L180.308,231.172954 C180.738,230.872954 181.498,230.822954 182.018,231.062954" id="rect3389"></path>
            <path d="M272.608,214.542954 L290.488,200.092954 C291.328,199.422954 291.678,198.762954 291.298,198.602954 L283.558,195.572954 C283.198,195.432954 282.238,195.832954 281.418,196.482954 L263.808,210.292954 C262.918,210.992954 262.478,211.692954 262.838,211.872954 L270.298,215.532954 C270.668,215.712954 271.708,215.272954 272.608,214.542954" id="rect3391"></path>
            <path d="M231.088,217.762954 L223.948,214.362954 C223.258,214.032954 222.268,214.072954 221.718,214.462954 L216.068,218.472954 C215.488,218.882954 215.568,219.502954 216.268,219.862954 L223.428,223.542954 C224.168,223.922954 225.238,223.882954 225.818,223.432954 L231.438,219.152954 C231.988,218.732954 231.828,218.112954 231.088,217.762954" id="path13125"></path>
            <path d="M217.148,258.082954 L209.018,254.152954 C208.418,253.862954 207.538,253.942954 207.038,254.322954 L200.278,259.602954 C199.768,259.992954 199.848,260.542954 200.448,260.842954 L208.628,264.842954 C209.238,265.132954 210.138,265.052954 210.638,264.652954 L217.348,259.312954 C217.848,258.922954 217.758,258.372954 217.148,258.082954" id="path13127"></path>
            <path d="M213.458,248.012954 L219.298,243.512954 C219.758,243.152954 219.558,242.592954 218.838,242.242954 L209.968,237.952954 C209.258,237.612954 208.318,237.612954 207.848,237.962954 L201.958,242.382954 C201.488,242.742954 201.678,243.302954 202.378,243.652954 L211.308,248.032954 C212.028,248.382954 212.988,248.372954 213.458,248.012954" id="path13129"></path>
            <path d="M222.218,241.232954 L228.158,236.522954 C228.728,236.062954 228.528,235.392954 227.708,235.002954 L219.588,231.182954 C218.788,230.802954 217.658,230.842954 217.058,231.272954 L210.848,235.732954 C210.208,236.192954 210.348,236.892954 211.178,237.292954 L219.558,241.372954 C220.408,241.782954 221.598,241.722954 222.218,241.232954" id="path13131"></path>
            <path d="M242.898,237.222954 L235.288,233.672954 C234.718,233.412954 233.928,233.452954 233.518,233.772954 L227.788,238.252954 C227.348,238.602954 227.478,239.092954 228.068,239.362954 L236.008,243.022954 C236.588,243.292954 237.398,243.222954 237.808,242.872954 L243.208,238.282954 C243.598,237.962954 243.458,237.482954 242.898,237.222954" id="path13133"></path>
            <path d="M251.478,230.252954 L244.068,226.912954 C243.488,226.652954 242.638,226.742954 242.168,227.102954 L236.178,231.742954 C235.688,232.122954 235.758,232.642954 236.338,232.912954 L243.718,236.402954 C244.318,236.692954 245.198,236.602954 245.678,236.222954 L251.708,231.432954 C252.188,231.052954 252.088,230.522954 251.478,230.252954" id="path13135"></path>
            <path d="M231.258,234.142954 L237.058,229.622954 C237.638,229.182954 237.398,228.512954 236.528,228.142954 L228.258,224.562954 C227.468,224.222954 226.388,224.282954 225.828,224.702954 L220.208,228.922954 C219.638,229.342954 219.798,229.982954 220.578,230.362954 L228.658,234.232954 C229.508,234.642954 230.668,234.602954 231.258,234.142954" id="path14377"></path>
            <path d="M204.908,254.562954 L210.848,249.982954 C211.278,249.642954 211.088,249.112954 210.418,248.792954 L201.398,244.422954 C200.728,244.102954 199.838,244.112954 199.408,244.442954 L193.418,248.932954 C192.968,249.262954 193.138,249.792954 193.808,250.122954 L202.888,254.572954 C203.568,254.912954 204.468,254.902954 204.908,254.562954" id="path14379"></path>
            <path d="M226.288,250.612954 L218.448,246.852954 C217.828,246.552954 216.908,246.642954 216.398,247.042954 L209.868,252.102954 C209.348,252.512954 209.418,253.082954 210.038,253.392954 L217.898,257.262954 C218.528,257.572954 219.468,257.492954 219.998,257.072954 L226.508,251.892954 C227.018,251.482954 226.928,250.912954 226.288,250.612954" id="path14381"></path>
            <path d="M205.158,236.912954 L197.608,233.262954 C196.858,232.902954 195.808,232.942954 195.248,233.352954 L189.568,237.502954 C188.988,237.922954 189.118,238.552954 189.858,238.932954 L197.358,242.712954 C198.128,243.092954 199.208,243.062954 199.788,242.632954 L205.518,238.352954 C206.088,237.932954 205.928,237.292954 205.158,236.912954" id="path14383"></path>
            <path d="M254.148,217.832954 L260.098,213.202954 C260.688,212.752954 261.678,212.632954 262.328,212.952954 L268.888,216.132954 C269.548,216.452954 269.608,217.082954 269.028,217.552954 L263.138,222.272954 C262.538,222.752954 261.518,222.872954 260.848,222.542954 L254.238,219.262954 C253.588,218.942954 253.548,218.302954 254.148,217.832954" id="path14385"></path>
            <path d="M246.708,206.172954 L239.748,203.002954 C239.048,202.682954 238.098,202.712954 237.628,203.052954 L232.818,206.572954 C232.328,206.932954 232.508,207.482954 233.228,207.802954 L240.368,210.992954 C241.078,211.302954 242.028,211.272954 242.498,210.912954 L247.128,207.362954 C247.588,207.012954 247.398,206.482954 246.708,206.172954" id="path20314"></path>
            <path d="M264.118,208.672954 L268.488,205.282954 C268.918,204.942954 268.608,204.402954 267.798,204.062954 L259.898,200.762954 C259.128,200.442954 258.158,200.442954 257.738,200.762954 L253.418,204.012954 C252.988,204.342954 253.248,204.872954 254.018,205.212954 L261.868,208.652954 C262.668,209.012954 263.678,209.022954 264.118,208.672954" id="path20316"></path>
            <path d="M256.848,214.292954 L261.568,210.662954 C262.048,210.302954 261.788,209.742954 260.988,209.402954 L253.018,206.022954 C252.218,205.682954 251.188,205.702954 250.708,206.062954 L245.918,209.692954 C245.438,210.052954 245.698,210.622954 246.508,210.962954 L254.538,214.342954 C255.338,214.682954 256.368,214.662954 256.848,214.292954" id="path20318"></path>
            <path d="M252.828,201.312954 L245.768,198.512954 C245.108,198.252954 244.278,198.262954 243.898,198.542954 L240.058,201.332954 C239.658,201.612954 239.858,202.072954 240.498,202.362954 L247.398,205.482954 C248.138,205.812954 249.068,205.832954 249.478,205.512954 L253.488,202.402954 C253.878,202.102954 253.578,201.612954 252.828,201.312954" id="path20320"></path>
            <path d="M239.248,211.732954 L232.168,208.522954 C231.478,208.202954 230.508,208.242954 229.998,208.602954 L224.788,212.242954 C224.268,212.612954 224.388,213.172954 225.068,213.512954 L232.048,216.912954 C232.778,217.262954 233.788,217.232954 234.328,216.842954 L239.628,213.012954 C240.158,212.632954 239.988,212.062954 239.248,211.732954" id="path20322"></path>
            <path d="M259.858,223.382954 L253.198,220.122954 C252.528,219.792954 251.528,219.882954 250.958,220.312954 L245.208,224.752954 C244.628,225.202954 244.718,225.832954 245.418,226.162954 L252.308,229.392954 C252.988,229.712954 253.978,229.612954 254.538,229.162954 L260.058,224.742954 C260.598,224.312954 260.508,223.702954 259.858,223.382954" id="path20324"></path>
            <path d="M240.068,227.262954 L245.518,223.072954 C246.068,222.652954 245.838,222.032954 245.008,221.672954 L236.868,218.182954 C236.068,217.832954 234.988,217.882954 234.448,218.282954 L229.008,222.362954 C228.458,222.772954 228.658,223.392954 229.458,223.752954 L237.578,227.362954 C238.408,227.732954 239.518,227.682954 240.068,227.262954" id="path20326"></path>
            <path d="M248.448,220.782954 L254.018,216.482954 C254.568,216.052954 254.348,215.432954 253.528,215.092954 L245.468,211.712954 C244.668,211.382954 243.588,211.442954 243.038,211.862954 L237.458,216.042954 C236.898,216.462954 237.078,217.082954 237.878,217.422954 L245.948,220.932954 C246.768,221.282954 247.888,221.222954 248.448,220.782954" id="path21282"></path>
            <polyline id="path2180" points="37.206 270.912954 28.759 266.662954 1.42108547e-14 68.8729536"></polyline>
            <path d="M64.946,252.472954 L203.027,167.842954 C204.767,168.902954 206.287,170.102954 206.347,172.182954 L68.777,256.952954 C68.538,254.982954 67.234,253.502954 64.946,252.472954 L64.946,252.472954 Z" id="path13298"></path>
        </g>
    </g>
</svg>