<?xml version="1.0" encoding="UTF-8"?>
<svg width="100%" height="100%" viewBox="0 0 1322 1010" version="1.1" xmlns="http://www.w3.org/2000/svg" xmlns:xlink="http://www.w3.org/1999/xlink">
    <title>Group 5</title>
    <g id="Page-1" stroke="none" stroke-width="1" fill="none" fill-rule="evenodd">
        <g id="Group-5" transform="translate(12.799901, 13.321299)">
            <g id="Group-4" transform="translate(0.000000, 0.000000)" stroke="#FFFFFF" stroke-width="25">
                <path d="M154.471658,983.274103 L1287.90322,927.812317 C1321.98298,537.806277 1254.46388,302.922629 1085.34592,223.161372" id="Path-2"></path>
                <line x1="76.7297345" y1="268.184312" x2="1095.19665" y2="223.161372" id="Path-3"></line>
                <path d="M85,251.552406 C4.7781623,460.89714 -18.6594703,632.563807 14.6871022,766.552406" id="Path-4"></path>
                <line x1="15.7000989" y1="766.178701" x2="154.471658" y2="983.274103" id="Path-5"></line>
                <path d="M461.208492,251.830805 C468.847706,93.1618724 520.529558,9.43872522 616.254051,0.661363664 C711.978543,-8.1159979 767.724716,70.4739396 783.49257,236.431176" id="Path-6"></path>
                <path d="M373.650881,245.830805 C485.076425,545.930604 506.180529,782.672032 436.963191,956.055089" id="Path-7"></path>
                <path d="M951.49257,234.431176 C1107.28904,555.236889 1136.8385,792.206454 1040.14097,945.339868" id="Path-8"></path>
                <path d="M76.7297345,268.184312 C164.894373,492.035411 190.808348,730.398674 154.471658,983.274103" id="Path-9"></path>
            </g>
            <g id="Louis_Vuitton_Icon" transform="translate(499.200099, 361.678701)" fill="#FFFFFF" fill-rule="nonzero">
                <path d="M15.1012808,467.36715 C20.603443,456.718243 24.9400685,454.414166 42.7142862,452.696033 C73.5167928,449.718541 95.8322722,437.605438 105.079333,418.843563 C109.391552,410.094314 122.368404,377.898295 133.916695,347.296918 L154.913624,291.658085 L102.756817,180.495499 C74.0705524,119.356067 45.1614251,63.8000969 38.5142702,57.0378212 C31.8671462,50.2755455 20.4821256,43.4356015 13.2142656,41.8379903 C2.20746982,39.4184925 0,36.7847267 0,26.0721578 L0,13.2110027 L70.400014,13.2110027 L140.799997,13.2110027 L140.799997,24.4314147 C140.799997,30.8200662 136.112024,39.8275807 129.913468,45.3488639 L119.02694,55.0458701 L152.570101,126.605501 C171.01884,165.9633 187.302772,198.153476 188.756603,198.139253 C193.478219,198.092968 220.611361,118.855614 219.184901,109.279222 C218.029003,101.519533 213.523948,97.1712517 198.681305,89.4892311 C197.845985,89.056861 198.498356,82.6165131 200.130873,75.1772987 L203.09921,61.6513869 L278.062791,61.6513869 L353.026341,61.6513869 L350.373268,71.5596312 C348.914061,77.0091825 347.693133,82.7008599 347.660046,84.2078168 C347.627053,85.7148047 339.917328,88.1772798 330.527387,89.6800318 C321.137415,91.1828146 309.298481,95.8947953 304.218536,100.151124 C298.467251,104.970022 282.439299,142.212256 261.738883,198.856263 L228.495385,289.822552 L246.663676,328.764523 C261.5973,360.773112 265.46021,366.138378 268.360396,358.899086 C270.301011,354.05505 299.813791,283.809071 333.944385,202.796909 C368.074949,121.78481 396,52.0013156 396,47.7225398 C396,38.930994 383.474812,30.8256935 369.889241,30.8256935 C362.434848,30.8256935 360.799983,28.0534109 360.799983,15.4128313 L360.799983,0 L422.399992,0 L484,0 L484,15.4128313 C484,28.2079127 482.406748,30.8256935 474.619327,30.8256935 C469.459986,30.8256935 458.764006,34.8306204 450.850572,39.7254555 C434.534665,49.8176673 434.319371,50.2785446 336.228006,285.137626 L275.073354,431.559647 L248.453254,431.559647 L221.833216,431.559647 L209.707347,406.814931 C203.038165,393.205321 196.85345,382.801632 195.963511,383.695684 C193.42289,386.248009 171.600001,445.368157 171.600001,449.698629 C171.600001,455.086219 350.546764,454.544458 370.139754,449.097597 C392.541116,442.869971 421.942093,415.408657 440.019867,383.827522 C453.833367,359.69599 456.85657,356.945845 469.699995,356.82823 C477.564988,356.756189 484,357.77945 484,359.102099 C484,360.424779 471.862237,388.167919 457.027193,420.753486 L430.054418,480 L219.31422,480 L8.57402225,480 L15.1012808,467.36715 Z" id="path2396"></path>
            </g>
            <path d="M85.0858785,268.184312 C270.861326,342.010778 396.235531,407.00353 461.208492,463.162567" id="Path-10" stroke="#FFFFFF" stroke-width="20"></path>
            <line x1="904.042343" y1="625.729207" x2="1296.47686" y2="874.726402" id="Path-11" stroke="#FFFFFF" stroke-width="20"></line>
        </g>
    </g>
</svg>