<svg id="Layer_1" data-name="Layer 1" xmlns="http://www.w3.org/2000/svg" viewBox="0 0 738 392"><defs><style>.cls-1{fill:#fff;}.cls-2,.cls-7,.cls-8,.cls-9{fill:none;}.cls-2,.cls-3,.cls-4,.cls-5,.cls-6,.cls-7,.cls-8,.cls-9{stroke:#fff;stroke-miterlimit:10;}.cls-3,.cls-4,.cls-5,.cls-6{fill:none;}.cls-3,.cls-7{stroke-width:1.6px;}.cls-4{stroke-width:0.6px;}.cls-5{stroke-width:0.72px;}.cls-6{stroke-width:0.61px;}.cls-8{stroke-width:0.59px;}.cls-9{stroke-width:0.69px;}</style></defs><title>Artboard 1</title><polygon class="cls-1" points="404.85 63.8 404.85 63.8 429.73 50.02 430.37 51.19 404.85 63.8"/><polygon class="cls-1" points="373.95 85.42 373.95 85.42 435.72 52.37 436.35 53.54 373.95 85.42"/><polygon class="cls-1" points="337.68 108.84 337.68 108.84 443.38 53.57 444 54.76 337.68 108.84"/><polygon class="cls-1" points="343.79 135.72 343.2 134.53 399.89 106.66 399.89 106.66 343.79 135.72"/><polygon class="cls-1" points="334.77 135.56 334.19 134.36 389.19 107.86 389.19 107.86 334.77 135.56"/><path class="cls-2" d="M175.44,129.75s3.48,2.25,27.48,3.42,41.9,1.93,41.9,1.93"/><path class="cls-1" d="M259.36,137.46c0-.09-1.87-9.41-17.39-35.21C208.47,47,188.06,41.34,158.43,38.63,115.61,39,88.66,67,86.42,69.37c-.23,1.37-1.34,8.77.68,12,.16.26.31.54.48.84,2.17,4.07,7.25,13.61,92,37.78l-.44,1.54C93.74,97.18,88.62,87.59,86.16,83a7.63,7.63,0,0,0-.42-.76c-2.54-4.08-.93-13-.86-13.37l0-.21.15-.17c.27-.31,28.09-31.1,73.42-31.44,29.33,2.68,51,8.61,84.85,64.39,15.74,26.16,17.52,35.37,17.59,35.75Z"/><path class="cls-1" d="M99,88.85l-1-.2C100.82,75.52,108,54.22,108,54h0C108,54.22,101.78,75.78,99,88.85Z"/><path class="cls-1" d="M146,109.63l-1-.08c2.81-36.74,18.26-69.64,18.41-70h0C163.26,39.91,148.79,73.07,146,109.63Z"/><path class="cls-1" d="M157.45,114.19l-1,0c2.59-40.47,16-75,13.07-74.5l1,.32A314.51,314.51,0,0,0,157.45,114.19Z"/><path class="cls-3" d="M381.12,354.62l-.29,0-1.26-.18-.18,0-.67-.09-.1,0-1.06-.15-.29-.05-.6-.08-.38-.06-.3-.05-.47-.07h-.1l-.37-.06h0l-.25,0h-.09c-3-5.49-3.82-13.34-4.92-24.51,2.59-11.54-17.74-99.32-37.72-111l-7.38-3.51a37.52,37.52,0,0,0-15.4-2.35c-.75.05-1.5.14-2.24.23s-1.35.21-2,.33h0A53.52,53.52,0,0,0,291.11,220s10.87,11.31,11.94,11.87a24.7,24.7,0,0,0,3.43.43c-9.64,15.53-14.44,38.22-11.83,63.08,2.89,27.63,14.23,51.43,29.15,65.08-1.5,6.13-5.69,15.13-5.69,15.13s12.1,5.12,30.39,1.78c26.62-4.88,30.12-18.36,32.33-22.8l1,.14Z"/><path class="cls-3" d="M369.75,329.16c2.48-11.07-16.13-92.34-35.3-109.22-7.57-4.89-15.77-7.4-24.1-6.86C281.28,215,261.62,253,266.43,298s32.27,80,61.33,78.17c20.31-1.32,36-20.3,42-47Z"/><ellipse class="cls-4" cx="315.56" cy="295.92" rx="44.32" ry="67.61" transform="translate(-39.02 48.09) rotate(-8.21)"/><ellipse class="cls-4" cx="315.53" cy="295.89" rx="42.58" ry="64.95" transform="translate(-39.02 48.09) rotate(-8.21)"/><ellipse class="cls-4" cx="325.03" cy="292.88" rx="28.84" ry="49.04" transform="translate(-30.55 37.96) rotate(-6.38)"/><ellipse class="cls-4" cx="323.39" cy="296.2" rx="13.44" ry="19.27" transform="translate(-25 29.85) rotate(-5.09)"/><ellipse class="cls-4" cx="320.42" cy="294.31" rx="4.81" ry="6.92" transform="translate(-44.25 57.03) rotate(-9.52)"/><path class="cls-4" d="M322.62,290.58a8.19,8.19,0,0,0-1.68-.7h0l-.18-.05-.18,0h0a6.69,6.69,0,0,0-1.7-.14,3,3,0,0,0-1.77.77l1,2.57.15.26.29-.93a.3.3,0,0,1,.29-.28c.27,0,.81.42.81.42l.56,5.31.1,2,.25-1.94,1-4.92s.57-.17.83,0a.48.48,0,0,1,.26.41l.21,1.05.16-.18,1.24-2A5.46,5.46,0,0,0,322.62,290.58Z"/><path class="cls-4" d="M287.34,242l3.67-3.13s1.22-.68,2,1.57,13.39,39.12,27.65,43.06c-.17.54,1.87,0,1.87,0s1.64-7.49,4.63-8.85,1.9-1,1.9-1l1-1.22s-3.13-1.91-2-8S332.78,244,332.78,244l-12.36-10.38s-.29-.41-1.11,0-2.2,19-1.2,34.29c0,0-5.85-4.14-8.05-21.28a36.64,36.64,0,0,1-.16-7.84l-5.74-2.58S295.85,233.92,287.34,242Z"/><path class="cls-4" d="M312,277.2s-1.16-.43-.78,3.78c.33,3.69,3.33,7.09,3.33,7.09s-4.65,6.81-11.57,9.53-27.75,3.58-27.75,3.58l-1,1.86s-.41,1.22-.55-4.36,2.86-12.24,2.86-12.24l6.39-1.09s16.06,4.22,19.46,4.29,3.54-1.7,3.81-2.2c-6.67-5-29.39-24.54-29.66-25.22,4.16-4.56,8.21-7,10.75-7.48a6.34,6.34,0,0,1,2.7.54s13.31,20.9,20,21.69Z"/><path class="cls-4" d="M341.49,250.93v1.91s-12.11,16.89-14.15,29.79c.27.68,0,10.94,0,10.94s0,.86,1.76,1.15,6.13,1.33,6.13,1.33a51.5,51.5,0,0,0,21.63,7.1V291.34l-.82-2.86s-14.15,2.31-15.92,0-2-7.48-1.49-8.57,6.53-8.44,12.24-10.48c-.13.28-1.36-3.53-1.36-3.53s-2.34-9.53-5.18-12.25Z"/><path class="cls-4" d="M315.54,300.59l-10.11,7.21s-15.37,7.35-18.09,11.56-2.4,15-2.4,15,1,1.09,1.58.82,1.5-.68,1.5-.68l7.83-3.41s9.58-16.59,16.93-18.77c0,.14,1.22,3.4-1.23,9.66,0,.14-9.11,25.3-9.11,25.3s2.31,6.4,6.26,7.9c.13,0,1.36.68,0,1.22s2.31.82,2.31.82,3.76-7.49,6.1-8.3c-.11,0,1.93-27.21,6.28-31.29-.27-.28-5.3-8.06-6.28-14.43A26.44,26.44,0,0,0,315.54,300.59Z"/><path class="cls-4" d="M340.26,303.17s-3,.41-9.11.68-5.3-1.51-7.76,1c-1.22,1.22.42,27.75,1.91,34.69s3.12,12.11,3.12,12.11l5.72,3.13,1.22-2s2.45-5.85,3.95-6.4c.27,0-9.93-21.34-5.17-30.87.27.53,14,22,14,22l4.67-8.51c.13,2.25,1.43-2.24,1.43-2.24l.88-6s-14-9.93-15.1-14A4.69,4.69,0,0,1,340.26,303.17Z"/><path class="cls-3" d="M92.69,252.66c-2.74-.37-3.18-.23-4.69-1.33-2.75-2-8.29-20.25-12.45-39.62,0-.82-.09-1.64-.14-2.46-1-14.88-4.46-28.12-9.17-37.6-4.58-10.77-11-13.42-11-13.42a11,11,0,0,0-6.62-1.56c-4.86.48-9.11,4.53-12.4,11l16.26,32.69c-.1,3.83,0,7.78.23,11.82L47.5,237.89l.56,25.95a21.49,21.49,0,0,0,15.66,6.3c14.82,0,16.87-3,20.19-4.78s7-9.17,7-9.17h0C91.53,255.1,92.12,253.91,92.69,252.66Z"/><ellipse class="cls-3" cx="52.41" cy="211.53" rx="23.1" ry="55" transform="translate(-13.18 3.71) rotate(-3.6)"/><path class="cls-5" d="M34.15,169.67c3.93-10.09,9.85-17.19,17-19.45"/><ellipse class="cls-6" cx="51.31" cy="212.48" rx="19.12" ry="44.93" transform="translate(-13.49 3.72) rotate(-3.67)"/><ellipse class="cls-6" cx="51.3" cy="212.45" rx="18.37" ry="43.16" transform="translate(-13.49 3.72) rotate(-3.67)"/><ellipse class="cls-6" cx="55.38" cy="210.44" rx="12.42" ry="32.64" transform="translate(-11.45 3.35) rotate(-3.14)"/><ellipse class="cls-6" cx="54.68" cy="212.66" rx="5.78" ry="12.84" transform="translate(-7.78 2.15) rotate(-2.11)"/><ellipse class="cls-6" cx="53.4" cy="211.4" rx="2.08" ry="4.59" transform="translate(-14.48 4.19) rotate(-3.96)"/><path class="cls-6" d="M54.34,208.91a2.94,2.94,0,0,0-.72-.47h0l-.07,0-.08,0h0a1.88,1.88,0,0,0-.73-.09,1.2,1.2,0,0,0-.76.52l.45,1.71.06.17.13-.62s0-.17.12-.19.35.29.35.29l.24,3.54,0,1.35.11-1.29.42-3.28s.25-.12.36,0a.4.4,0,0,1,.11.27l.09.71.07-.12.53-1.34A3.3,3.3,0,0,0,54.34,208.91Z"/><path class="cls-6" d="M39.19,176.46l1.58-2.09s.52-.45.87,1,5.76,26.1,11.88,28.73c-.07.36.81,0,.81,0s.7-5,2-5.9.82-.64.82-.64l.41-.81s-1.34-1.27-.88-5.36,2.05-13.59,2.05-13.59l-5.31-6.93s-.13-.27-.48,0-.94,12.71-.51,22.88c0,0-2.52-2.76-3.46-14.2a38.83,38.83,0,0,1-.07-5.23l-2.46-1.72S42.85,171.1,39.19,176.46Z"/><path class="cls-6" d="M49.78,200s-.49-.29-.33,2.52a12.37,12.37,0,0,0,1.43,4.74s-2,4.54-5,6.35S34,216,34,216l-.41,1.24s-.18.82-.23-2.9a33.36,33.36,0,0,1,1.22-8.17l2.75-.73s6.9,2.82,8.36,2.86,1.52-1.13,1.63-1.47c-2.86-3.33-12.62-16.37-12.74-16.82,1.79-3.05,3.53-4.64,4.62-5,.41-.13,1.16.37,1.16.37s5.72,13.94,8.6,14.47Z"/><path class="cls-6" d="M62.45,182.45v1.27s-5.2,11.28-6.08,19.89c.12.45,0,7.29,0,7.29s0,.58.76.77,2.63.89,2.63.89a18,18,0,0,0,9.29,4.74v-7.88l-.35-1.91s-6.08,1.54-6.84,0a12.35,12.35,0,0,1-.64-5.72c.24-.73,2.81-5.63,5.26-7a19.42,19.42,0,0,1-.58-2.36s-1-6.36-2.23-8.17Z"/><path class="cls-6" d="M51.31,215.59,47,220.4s-6.6,4.9-7.77,7.72-1,10-1,10,.45.73.68.55.64-.45.64-.45l3.37-2.27S47,224.85,50.12,223.4a15.22,15.22,0,0,1-.53,6.44c0,.09-3.91,16.89-3.91,16.89s1,4.27,2.69,5.26a.46.46,0,0,1,0,.82c-.59.36,1,.55,1,.55s1.62-5,2.62-5.54c0,0,.83-18.16,2.7-20.88a37.65,37.65,0,0,1-2.7-9.63C51.93,217,51.31,215.59,51.31,215.59Z"/><path class="cls-6" d="M61.92,217.31a30.13,30.13,0,0,1-3.91.46c-2.63.18-2.28-1-3.33.63-.53.82.18,18.52.82,23.15s1.34,8.08,1.34,8.08l2.45,2.09.53-1.36s1-3.9,1.69-4.27c.12,0-4.26-14.24-2.22-20.6.12.36,6,14.7,6,14.7l2-5.67c.06,1.5.61-1.5.61-1.5l.38-4s-6-6.63-6.48-9.36A4.66,4.66,0,0,1,61.92,217.31Z"/><path class="cls-7" d="M714.17,297.93c-3.25-3.57-3.09-13.29-3.09-13.29l1.19-24.6.59-3.57s.6-3.57,1.19-11.7-1.19-18.05-1.19-18.05-2.58-17.26-8.33-24.6c-10.51-18.84-31.74-40.27-48.8-48.2s-42.84-13.69-42.65-13.69c-7.53-5.35-37.41-13.07-37.41-13.07-27.34-4.84-32.67-11.16-34-11.83C465,44,410.33,32,410.33,32c-44.66-10-69-13.4-140-13.2C210.31,19,141,26.33,119,38S66.13,84.25,66.13,84.25L38,99.33s-3,1.34-4.33,6.34S30.33,124.33,30.33,129v25.33s-2.92,7.34-3.58,21.34c-.52,10.87-.27,19.92,2.36,27.33.35-25.35,8.34-45.22,19.49-46.33a11,11,0,0,1,6.62,1.56s6.44,2.65,11,13.42c4.71,9.48,8.14,22.72,9.17,37.6,0,.82.1,1.64.14,2.46,4.16,19.37,9.7,37.63,12.45,39.62,3.67,2.67,1-2,40.67,11.34s137.66,51.66,137.66,51.66l1-.33a126.59,126.59,0,0,1-2.77-16.06c-4.9-45.41,15.11-83.76,44.68-85.65a37.52,37.52,0,0,1,15.4,2.35l7.38,3.51c20,11.69,40.31,99.47,37.72,111,1.1,11.17,1.94,19,4.92,24.51-.34,0,36.09,5.35,40.65,4.76,25.72,1.8,60.9-1.1,60.9-1.1s2.77.31,15.86-3.66c21.43-4.17,38.68-2.78,105.73-11.9s94.82-23.61,94.82-23.61a37.76,37.76,0,0,0,4.76,0c4-1.78,15.07-11.5,16.78-14.48A5.68,5.68,0,0,0,714.17,297.93Z"/><path class="cls-8" d="M30.78,185s-5-26.78,11.33-36.2c9.87-5.7,20.6,15.31,20.6,15.31"/><path class="cls-8" d="M30.33,154.33s5.71-16.7,16.06-15,31.17,55.81,26.7,39.81c-.7-2.51-3.84-23.87,11.66-26.62s38.25-3.75,61,2.25,85.5,27.45,98.75,36,18.75,13.5,24.25,25.26c.25.77,6.25-17.06,27.1-14.84"/><path class="cls-8" d="M41.19,97.62c-1.73.93,1.66,2.91,1.66,2.91l-9.06,15.88L31,121.56"/><path class="cls-8" d="M34.15,104.18s-2.13,2.11,4,4"/><line class="cls-8" x1="32.02" y1="112.46" x2="35.04" y2="114.51"/><path class="cls-8" d="M75.72,118.83l-3.39-.91s-.58.25-.5,1.41a28.1,28.1,0,0,0,.59,3.25,2.85,2.85,0,0,0,1.35,1.34c.9.33,11.65,3.25,11.65,3.25a1.62,1.62,0,0,0,1-1.75,2,2,0,0,0-1.5-1.75L78.42,122a6.48,6.48,0,0,1-1.67-.44C76.17,121.25,75.72,118.83,75.72,118.83Z"/><path class="cls-9" d="M151.91,138.91l-4-1.06s-.69.29-.59,1.64a29.16,29.16,0,0,0,.69,3.77,3.33,3.33,0,0,0,1.61,1.55c1.05.39,13.79,3.77,13.79,3.77a1.87,1.87,0,0,0,1.19-2,2.34,2.34,0,0,0-1.78-2l-7.7-1.93a7.49,7.49,0,0,1-2-.52C152.43,141.72,151.91,138.91,151.91,138.91Z"/><path class="cls-9" d="M274.54,188.91a1.46,1.46,0,0,0-.82-1.49c-.82-.31-14.6-4.77-14.6-4.77s-1.68-.64-1.27,1,5.36,9.32,6.09,10.28,2.55,4.23,3,4.5.77.59,1.09.46S274.54,188.91,274.54,188.91Z"/><path class="cls-9" d="M263.9,186.56s-.69-.5-.37,1.59a50.85,50.85,0,0,0,1.87,6.42"/><path class="cls-1" d="M273.83,187.34c-.15-.06-13.45-4.54-15.65-5.35-1.34-.49-1.22,1.61-1.22,1.61s-3.19-2.74-2.64-3.82c.22-.26.67-.3,2.33.31,2.2.81,17,7.19,17.18,7.25Z"/><path class="cls-9" d="M263.45,278.93c-.7-1.18,1.42-72.5,32.4-77.79,21.26-3.64,40.39,20.56,40.39,20.56"/><path class="cls-8" d="M374.5,308.75c0-2.25-8-75-45.25-107.61C293,170.8,268.75,216,268.75,216"/><path class="cls-8" d="M240.5,264.75c-1-2-99.75-54.88-130.5-60.44-25.25-4.31-20.75,1.44-20.75,1.44S105,218.25,162,238s78.5,26.75,78.5,26.75"/><path class="cls-8" d="M91.5,88.75A24.83,24.83,0,0,0,88.94,90l-2.52,4s.58,2.5-7.3,6-14.67,6.19-14.67,6.19S52.75,161.12,100,231.31c8,9.19,50.75,22.05,50.75,22.05S239.87,283.25,254.56,292l7.19,6.25,2.82-.31"/><path class="cls-1" d="M136.94,229.31l-.06-.13.06-.13a44.7,44.7,0,0,0,3.68-18.55c-4-27.47-7.69-57.05-6.5-59.5l.24-.77,0-.06,12-32.26v-3.52l3.61-2.13.3.5-3.32,2v3.34L134.36,152.3c-.46,5.62,3,31.26,6.84,58.15A43.28,43.28,0,0,1,136.94,229.31Z"/><path class="cls-1" d="M544.55,228.28c-15.39,0-26.63-1.9-36.26-6.44-11.66-5.5-20.62-9.67-31-14.5-13-6.07-29.24-13.61-57-26.67C379.19,161.3,297.71,145,273.71,140.45h0c92.5,17.5,133.91,32.47,147.3,38.77,27.72,13.06,43.93,20.6,57,26.66,10.38,4.84,19.34,9,31,14.51,19.58,9.24,46.26,7.3,102.45.66,31.81-3.76,39.26-5.34,47-7.32,4-1,6.12-2.36,6.86-4.3,1.29-3.38-1.18-9.19-8.5-20.08-29.13-43.29-65.69-55.92-97.61-62.57h0c45.7,9.52,75.51,26.86,98.94,61.68C665.86,200,668.29,206,666.78,210c-.95,2.48-3.4,4.11-8,5.28-7.8,2-15.29,3.59-47.2,7.36C582.37,226.09,561.06,228.28,544.55,228.28Z"/><path class="cls-1" d="M265.43,145.45l-9.57,1.17-15.67-2.69-.13-.29c-.33-.29-3.32-2.35-21.58-2.83-22.86-.61-31.93-2.58-37.27-4.22-6.81-2.1-6.6-5.29-6.56-5.65a39.18,39.18,0,0,1,4-10.54,19.91,19.91,0,0,1,8.95-8.67l.16,0c.82-.17,20.15-4,25-4.52,6.15-.61,11.46,3.39,14.08,5.84,3.21,3,8,15.93,8.53,19.94l25.54,4.23s6.89,2.16,12.78,3.28h0c-5.87-1.12-9.28-1.71-9.28-1.71l-31-4.47.44-.89c0-1.69-4.67-16-8.09-19.21-4.12-3.85-8.79-5.82-12.83-5.42-4.63.47-23.32,4.19-24.78,4.48a18.8,18.8,0,0,0-8.09,7.91,38.36,38.36,0,0,0-3.84,10h0s0,2.21,5.45,3.88c5.24,1.61,14.17,3.54,36.85,4.15,17.07.45,21.48,2.28,22.61,3.26L256.09,145l9.34.41Z"/><path class="cls-1" d="M604.71,214.84l-.05-.29c-1-.7-7.25-4.59-11.47-7.19l-.55-.16s-.32-.12-.44,0-.29.28-.2.36l.4,0-.53,1.85a22.17,22.17,0,0,1-6.33-2.35l-.66-.37-.2-1.06h0l.5-.38a16.67,16.67,0,0,1,6.46-2.44c7.16-1,9.68.63,9.84.69l.39.12h0c.07.11,1,2.43.71,3.24-.27.66-.41.16-.75.26l-.23.07-.26-.13-.92-.52-2.41-.33,7.63,7.52h0c0,1.37,0,1-.46,1.08Zm-12.31-8.69a1.72,1.72,0,0,1,.57.1l.69.22c6.31,3.89,9.28,5.74,10.68,6.67l-8.05-8.35,4.37.73.12.06s.75.39,1.08.58c.14-.12,0,.14.14-.12a5.67,5.67,0,0,0-.17-1.93,18.48,18.48,0,0,0-10.21-.86c-4.52.81-4.43,1.84-5.35,2.43l.08.09a16.76,16.76,0,0,0,5,1.93,1,1,0,0,1,.13-1.13A1.22,1.22,0,0,1,592.4,206.15Zm9.46,0,0,0Z"/><path class="cls-7" d="M504,233.47c-1.67-3.14-20.33-16.7-34.33-21.25s-27.67-9-27.67-9-65.67-30.67-74.67-25.6c-9.33,5.07,1.62,15.2,2.65,17s19.37,25.76,20.86,26.76,9.39,11.54,26.77,14.27S467,242.33,467,242.33s7.33,1.36,19.67-2.48S504,233.47,504,233.47Z"/><path class="cls-2" d="M364,180s27.29,17.72,41.15,25.05,28.18,10.35,45.18,11,19.34-3.79,19.34-3.79"/><path class="cls-2" d="M367.33,177.6l37.82,23.16s4.85,2.91,20.18,4.57S442,203.2,442,203.2"/><path class="cls-7" d="M655.73,153.92s-3.51,2-1.84,3.64,19,19.38,20.36,24.43-2.32,4.82-.66,12.09S680,212.22,680,212.22a30.55,30.55,0,0,0,11.72,3.92c6.34.59,8.53-2.94,8.53-2.94s5.15-9.75,2.91-13.41-1.65-2.69-1.65-2.69"/><path class="cls-1" d="M675.33,183.5l-.5-.87c.19-.11,4.51-2.68,1.72-8.83-5.89-8.07-19.56-17.77-20.93-18.68l2.11.7-.28.42.3-.4c1.38.91,13.66,9.19,19.64,17.41l.05.09C680.66,180.38,675.38,183.47,675.33,183.5Z"/><path class="cls-1" d="M675.54,194.08a3.32,3.32,0,0,1-2.57-1l.74-.67c.68.75,2.07.83,4.14.25.84-.25,5.5-4.28,5.34-8.78s-6.76-11.93-6.81-12l2.53,2.39c.21.19,5.11,4.67,5.28,9.55s-4.75,9.39-6.07,9.77A9.57,9.57,0,0,1,675.54,194.08Z"/><path class="cls-1" d="M687.92,210.67a15.09,15.09,0,0,1-3.28-.43c-5-1.12-6.72-1.61-6.79-1.63l.27-1s1.82.52,6.74,1.62,7.26.46,9.93-6.25c2.3-5.8,1.06-9.4.72-10.2-1.39-.45-11.87-5.17-12.94-5.73l3.41,1.38c.89.47,7.56,2.66,10,3.47l.19.06.09.17c.09.17,2.21,4.15-.6,11.22C693.51,208.93,691.17,210.67,687.92,210.67Z"/><path class="cls-1" d="M462.77,237.82a24.19,24.19,0,0,1-3.55-.26c-.22,0-.38-.06-.47-.06-.75,0-51.87-8.62-62.11-10.34l.17-1c21,3.54,60.91,10.25,62,10.33l.59.07c1.57.22,5.75.81,14-1.3a146.1,146.1,0,0,0,18.69-6.49l-20.21-7.35,5.29,1.59,17.76,5.61-1.21.53a149.62,149.62,0,0,1-20.08,7.07A43.65,43.65,0,0,1,462.77,237.82Z"/><path class="cls-2" d="M217,43.88s.25-1.22,9.29-2.2,43.31-5,114-5.87,89.31,4.34,95,5.35"/><path class="cls-1" d="M315.25,138.44c-11.11,0-16.28-3.68-21.45-8.35C287.05,124,267.55,90.43,266.72,89c-.12-.16-14.94-20.66-21-27.17-3.11-3.36-4.22-6.23-3.29-8.55,1.26-3.13,6.26-5,14.86-5.49l5.35-.34c23.51-1.48,86-5.41,154.16-4.07a93.16,93.16,0,0,1,42,9.29,55.48,55.48,0,0,1,7.64,4.42l-.59.81a55,55,0,0,0-7.49-4.33,92.51,92.51,0,0,0-41.59-9.19C348.67,43,286.25,47,262.74,48.45l-5.35.33c-8.07.49-12.9,2.17-14,4.87-.77,1.93.27,4.45,3.09,7.5,6.06,6.55,20.92,27.1,21.07,27.31.23.39,19.47,35.3,26.11,41.29s13.1,10.21,32.78,7c13.07-2.15,70.77-5.22,116.48-7.37,23.54-1.11,43.87-2.06,52.61-2.69,25.13-1.82,40.43-3.29,40.58-3.3s2,0,2.43-1.27-.36-3.8-6.63-9.55c-7.07-5.49-13.37-10.59-13.92-11l-.88-.81c5.85,4.21,12,7.9,15.37,11,8.74,6.78,17.52,13.27,19.63,13.79h0c-1.88-.46-8.36-3.94-15-9,2,2.51,2.81,4.47,2.36,5.86-.62,1.93-3.22,1.95-3.33,1.95s-15.41,1.49-40.56,3.31c-8.75.63-29.08,1.58-52.63,2.69-45.69,2.15-102.55,4.82-115.56,7A75.54,75.54,0,0,1,315.25,138.44Z"/><path class="cls-8" d="M655.11,174.7c-.7-1.46-4.3-15.25-42-34.47"/><path class="cls-1" d="M508,265.44c-54.19-4.32-139.6-27-140.81-27.89h0c1.39.84,87.15,23,141.82,27.38Z"/><path class="cls-8" d="M497.67,273.33S500.2,255,634.1,241c62.23-8.33,59.57-3.69,59.57-3.69"/><path class="cls-8" d="M710.54,216s-5.8,20-13.88,20"/><path class="cls-1" d="M426.15,338.34c-18.16,0-25.69-29.22-25.77-29.52l-2.2-8.78h0l-.32-.5.2-.09L395,287.12l.4,0,92,4.58-.1.36c-.12.44-3.3,10.88-24.94,11.37-11.71.26-28.79-1.16-42.52-2.3-9.52-.79-18.56-1.55-21.06-1.25l2.19,8.78c.08.3,7.83,30.33,26.36,29l0,.58C427,338.32,426.54,338.34,426.15,338.34Zm-25.64-39.09c3.37,0,9.77.51,19.36,1.31,13.71,1.14,30.78,2.55,42.46,2.3,11.07-.25,17.11-3.22,20.24-5.66a12.78,12.78,0,0,0,4-4.92l-88.83-3.68.87,10.74A15.42,15.42,0,0,1,400.51,299.25Z"/><path class="cls-8" d="M713.64,249.7s-7.31,10-12.31,12c.67,1,1.67,4,4.67,3.33s6.27-5,6.27-5"/><path class="cls-8" d="M709,289.64c-1-1-7.33-1.43-6.67-2.2s.85-6.49,5.16-12.11C709,270.33,706,265,706,265"/><path class="cls-1" d="M489.51,313.24c-41.39,0-73.08-1.67-74.73-2.14l-4,.15,4.25-.92-4.25.92c4.25.89,154.27,6.21,233.08-11.44,26.14-5.77,41.89-12.26,50.51-16.7,9.33-4.8,12.52-8.28,12.55-8.31l1.19,1.07c-.51.58-13.24,14.32-63.91,25.5C601.71,310.88,538.75,313.24,489.51,313.24Z"/><path class="cls-8" d="M504,341.72c-1.33-1.39-14-2.81-1.33-12.77s17-11.28,24.33-11.95,64-3.66,111.67-13.83,50.33-11.77,51-7,.7,9,4,12.55"/><path class="cls-1" d="M510.75,338.15c-10.19,0-11.49-1.28-12.93-2.69a6.27,6.27,0,0,0-.65-.59l1-1.26a9,9,0,0,1,.78.71c1.7,1.66,3.63,3.55,38,.88,37.77-2.93,95.19-14,97-14.31l1.6-.36c39.34-8.48,47.67-14,49.13-16.46,1.58-2.72-.69-8.73-1.57-9.38,0,0-.2,0,0,0h0c-.49-.72.24-.84.6-.32,1.25,1.86,4.2,7.34,2.35,10.5-3.53,6.06-29.23,12.71-50.17,17.23l-1.52.33c-.66.14-59,11.4-97.27,14.37C524.62,337.76,516.35,338.15,510.75,338.15Z"/><path class="cls-1" d="M516.91,296h-.14a6.1,6.1,0,0,1-4.92-2.3,6,6,0,0,1-.85-5.26,10.22,10.22,0,0,1,9.43-7.16h.15a6.12,6.12,0,0,1,4.92,2.3,6,6,0,0,1,.85,5.26A10.23,10.23,0,0,1,516.91,296ZM520.63,282a9.32,9.32,0,0,0-8.57,6.62,5.38,5.38,0,0,0,.73,4.69,5.32,5.32,0,0,0,4.32,2h.13a9.32,9.32,0,0,0,8.57-6.62h0a5.38,5.38,0,0,0-.73-4.69,5.32,5.32,0,0,0-4.32-2Z"/><path class="cls-1" d="M298.26,144c-12.3,0-24.15-19.3-37.85-41.61C249.07,83.93,236.21,63,221.16,50.25,188.48,22.57,152.42,29.1,150.9,29.39l-.3-1.57c1.55-.3,38.34-7,71.6,21.21,15.24,12.91,28.17,34,39.57,52.54,13.45,21.9,25.09,40.85,36.49,40.85h.39c21.84-.84,56.68-.85,57-.85,1.21,0,122-.67,189.85-12.61h.19c3.43.24,10.24-2.58,10.3-2.61h0c-1.47.61-6.45,4.43-10.31,4.21-68,11.95-188.81,12.61-190,12.62-.36,0-35.17,0-57,.84Z"/><path class="cls-1" d="M247.61,236.82c-.09-11.94.26-26.21,1.3-43.19l-.4-.27c-1,17.2-1.35,31.63-1.17,43.67Z"/><path class="cls-1" d="M260.14,151.33c.85-.1,3.76-.75,4.95-5l-.56-.16c-1.27,4.46-4.48,4.53-4.62,4.53h-.23l-.05.22c-2.4,9-8.52,31.87-9.57,35.07l-1.55,7.32,2.55-9.08C251.52,183.22,252.51,180.06,260.14,151.33Z"/></svg>