<?xml version="1.0" encoding="UTF-8"?>
<svg width="1474px" height="581px" viewBox="0 0 1474 581" version="1.1" xmlns="http://www.w3.org/2000/svg" xmlns:xlink="http://www.w3.org/1999/xlink">
    <title>Group 6</title>
    <g id="Page-1" stroke="none" stroke-width="1" fill="none" fill-rule="evenodd">
        <g id="Group-6" transform="translate(10.994231, 10.590066)" stroke="#FFFFFF" stroke-width="20">
            <path d="M683.155699,508.333479 L1240.35035,441.177808 C1253.07841,313.146797 1287.13536,249.131291 1342.52118,249.131291 C1397.907,249.131291 1423.31983,292.331656 1418.75966,378.732385 L1405.03587,410.595829 L1418.75966,399.270453 L1451.8786,302.164876 L1437.75651,159.757795 L1386.85293,144.103147 C1261.62149,53.8291617 1142.8391,8.69216932 1030.50577,8.69216932 C918.172435,8.69216932 802.389079,70.3612093 683.155699,193.699289 C447.152638,199.437018 329.151107,195.214535 329.151107,181.031839" id="Path-12" stroke-linecap="round"></path>
            <path d="M329.151107,181.031117 C155.071317,200.051173 47.5406102,250.483432 6.55898613,332.327892" id="Path-13" stroke-linecap="round"></path>
            <path d="M6.55898613,332.327892 L0,458.67265 C60.3824822,496.254389 203.19052,518.62814 428.424113,525.793905" id="Path-14" stroke-linecap="round"></path>
            <path d="M428.42385,525.793905 C431.920225,378.647541 478.777093,297.00855 568.994455,280.876932" id="Path-15" stroke-linecap="round"></path>
            <path d="M568.994455,280.876932 C668.175443,288.787525 708.102428,361.201236 688.775411,498.118065" id="Path-16" stroke-linecap="round"></path>
            <line x1="688.775411" y1="498.118065" x2="1240.35035" y2="441.177808" id="Path-17" stroke-linecap="round"></line>
            <path d="M329.151107,180.031117 C524.34704,35.2015045 751.189163,-22.2448115 1009.67747,7.69216932" id="Path-18" stroke-linecap="round" stroke-linejoin="round"></path>
            <path d="M274.030644,337.701852 L377.642605,321.500763 L466.65062,255.679505 L471.741247,233.266035 C329.825968,269.939902 248.862662,297.948886 228.851328,317.292989" id="Path-19" stroke-linecap="round" stroke-linejoin="round"></path>
            <line x1="230.005769" y1="315.409934" x2="280.005769" y2="338.409934" id="Path-20" stroke-linecap="round" stroke-linejoin="round"></line>
            <path d="M709.858844,206.576826 C1096.10175,182.566111 1289.22321,152.617615 1289.22321,116.731337" id="Path-21" stroke-linecap="round" stroke-linejoin="round"></path>
            <path d="M1292.22321,116.731337 C1208.17128,59.1549174 1114.67319,33.3546085 1011.72892,39.3304105 C908.784651,45.3062125 807.210268,101.055018 707.005769,206.576826" id="Path-22" stroke-linecap="round" stroke-linejoin="round"></path>
            <path d="M1067.00577,173.409934 C1066.65939,177.824056 1063.32606,132.824056 1057.00577,38.4099338" id="Path-23" stroke-linecap="round" stroke-linejoin="round"></path>
            <line x1="985.160418" y1="222.535902" x2="1035.06723" y2="214.050476" id="Path-24" stroke-linecap="round" stroke-linejoin="round"></line>
            <line x1="1231.23776" y1="199.748026" x2="1273.10961" y2="188.236298" id="Path-25" stroke-linecap="round" stroke-linejoin="round"></line>
            <polygon id="Path-26" stroke-linecap="round" stroke-linejoin="round" points="46.6096877 423.850064 174.815274 440.409934 221.2779 481.756469 46.6096877 459.03638 18.7714823 448.365313 18.7714823 423.850064"></polygon>
            <polygon id="Path-27" stroke-linecap="round" stroke-linejoin="round" points="1436.94137 161.654082 1361.81796 161.654082 1436.94137 218.293189"></polygon>
            <path d="M18.7714823,326.909934 L167.855047,349.439144 C198.42133,359.959109 216.228948,373.311894 221.2779,389.497499" id="Path-28" stroke-linecap="round" stroke-linejoin="round"></path>
            <path d="M725.939298,452.803266 L1170.23488,403.335418 C1253.56043,307.084841 1294.22321,230.80222 1292.22321,174.487555" id="Path-29" stroke-linecap="round" stroke-linejoin="round"></path>
            <line x1="707.005769" y1="206.576826" x2="725.939298" y2="452.803266" id="Path-30" stroke-linecap="round"></line>
            <ellipse id="Oval" cx="1341.60961" cy="369.909934" rx="58.5" ry="98.5"></ellipse>
            <ellipse id="Oval" cx="577.505769" cy="440.409934" rx="95.5" ry="120"></ellipse>
        </g>
    </g>
</svg>