<?xml version="1.0" encoding="UTF-8"?>
<svg width="20px" height="90px" viewBox="0 0 1272 855" version="1.1" xmlns="http://www.w3.org/2000/svg" xmlns:xlink="http://www.w3.org/1999/xlink">
    <title>xbox_controller</title>
    <g id="Page-1" stroke="none" stroke-width="1" fill="none" fill-rule="evenodd">
        <g id="xbox_controller" transform="translate(1.000000, 1.000000)" fill="#FFFFFF" fill-rule="nonzero" stroke="#FFFFFF" stroke-width="0.5">
            <path d="M667.917663,76 C660.931126,79.3194292 650.07367,84.6520307 649,90.5642151 C649,90.5642151 678.614838,119.411636 677.312821,146 C683.359623,137.49506 687,127.163557 687,115.958288 C686.997804,99.8221734 679.473334,85.5675082 667.917663,76 Z" id="Path"></path>
            <path d="M311.5,194 C278.689887,194 252,220.686936 252,253.49342 C252,286.299904 278.689887,313 311.5,313 C344.312306,313 371,286.313064 371,253.49342 C371,220.684742 344.310113,194 311.5,194 Z" id="Path"></path>
            <circle id="Oval" cx="876" cy="256" r="41"></circle>
            <path d="M311.00547,160 C259.169206,160 217,202.156568 217,253.993436 C217,305.830303 259.169206,348 311.00547,348 C362.830794,348 405,305.830303 405,253.993436 C405,202.156568 362.841735,160 311.00547,160 Z M311.00547,326.735725 C270.89965,326.735725 238.264028,294.088782 238.264028,253.980307 C238.264028,213.871831 270.89965,181.238018 311.00547,181.238018 C351.113479,181.238018 383.746913,213.874019 383.746913,253.980307 C383.746913,294.086594 351.12442,326.735725 311.00547,326.735725 Z" id="Shape"></path>
            <circle id="Oval" cx="545.5" cy="255.5" r="21.5"></circle>
            <path d="M634.872902,104 C608.561502,124.254907 599.870653,141.272349 597,150.847117 C606.521366,161.302249 620.120812,168 635.368145,168 C650.201315,168 663.518079,161.704202 673,151.729665 C670.412029,142.355873 662.017012,124.897157 634.872902,104 Z" id="Path"></path>
            <path d="M1107.38646,123.619396 C1071.79567,100.857874 1097.47227,87.8541068 1060.63345,59.6781818 C1023.79682,31.5022568 874.295791,-16.1913663 848.286379,5.48377004 C822.276966,27.1589064 793.037999,31.489115 793.037999,31.489115 L635.146698,31.489115 L634.879576,31.489115 L476.975139,31.489115 C476.975139,31.489115 447.723034,27.1589064 421.726759,5.48377004 C395.730483,-16.1913663 246.214131,31.489115 209.379688,59.6781818 C172.543056,87.8541068 198.21747,100.857874 162.62668,123.619396 C127.035889,146.380918 33.8648705,460.674775 33.8648705,460.674775 C33.8648705,460.674775 -87.4722465,810.736112 129.205712,853 C129.205712,853 182.297406,819.409671 227.789246,765.21526 C273.296412,711.020848 362.123406,634.078056 409.800395,632.991671 C456.432979,631.93376 627.415472,632.950056 634.866439,632.991671 L634.866439,632.991671 C634.866439,632.991671 634.918987,632.991671 635,632.991671 C635.09415,632.991671 635.135751,632.991671 635.135751,632.991671 L635.135751,632.991671 C642.586717,632.950056 813.56921,631.93376 860.201794,632.991671 C907.865646,634.078056 996.707967,711.020848 1042.21294,765.21526 C1087.71792,819.409671 1140.79429,853 1140.79429,853 C1357.47225,810.736112 1236.13513,460.674775 1236.13513,460.674775 C1236.13513,460.674775 1142.97725,146.380918 1107.38646,123.619396 Z M959.115947,117.867687 C989.173798,117.867687 1013.61332,142.331066 1013.61332,172.384072 C1013.61332,202.437078 989.158471,226.900457 959.115947,226.900457 C929.073422,226.900457 904.618575,202.45022 904.618575,172.384072 C904.618575,142.317925 929.058096,117.867687 959.115947,117.867687 Z M875.662057,201.311268 C905.717719,201.311268 930.159429,225.761505 930.159429,255.827652 C930.159429,285.8938 905.704582,310.344037 875.662057,310.344037 C845.617343,310.344037 821.162496,285.880658 821.162496,255.827652 C821.162496,225.774647 845.604206,201.311268 875.662057,201.311268 Z M727.242658,220.949432 C746.4711,220.949432 762.108715,236.605644 762.108715,255.840794 C762.108715,275.075944 746.4711,290.719015 727.242658,290.719015 C708.014217,290.719015 692.374412,275.075944 692.374412,255.840794 C692.374412,236.605644 708.014217,220.949432 727.242658,220.949432 Z M203.761357,253.657072 C203.761357,194.383372 251.974781,146.166269 311.229999,146.166269 C370.483027,146.166269 418.683314,194.383372 418.683314,253.657072 C418.683314,312.932963 370.483027,361.163208 311.229999,361.163208 C251.974781,361.161018 203.761357,312.932963 203.761357,253.657072 Z M561.392421,486.868485 C561.392421,490.56789 558.390577,493.570781 554.692463,493.570781 L505.541921,493.570781 L505.541921,542.753803 C505.541921,546.451017 502.540077,549.456099 498.841963,549.456099 L445.778732,549.456099 C442.080618,549.456099 439.078774,546.453207 439.078774,542.753803 L439.078774,493.570781 L389.928232,493.570781 C386.230118,493.570781 383.228274,490.57008 383.228274,486.868485 L383.228274,433.786742 C383.228274,430.087338 386.230118,427.086637 389.928232,427.086637 L439.078774,427.086637 L439.078774,377.903615 C439.078774,374.204211 442.080618,371.201319 445.778732,371.201319 L498.841963,371.201319 C502.540077,371.201319 505.541921,374.204211 505.541921,377.903615 L505.541921,427.086637 L554.692463,427.086637 C558.390577,427.086637 561.392421,430.087338 561.392421,433.786742 L561.392421,486.868485 Z M545.233699,290.708063 C526.005257,290.708063 510.367642,275.064993 510.367642,255.829843 C510.367642,236.594692 526.005257,220.93629 545.233699,220.93629 C564.46214,220.93629 580.099755,236.592502 580.099755,255.829843 C580.099755,275.067183 564.446814,290.708063 545.233699,290.708063 Z M635.010948,181.259138 C598.977872,181.259138 569.673219,151.928929 569.673219,115.885473 C569.673219,79.8529677 598.993199,50.5249487 635.010948,50.5249487 C671.028696,50.5249487 700.348676,79.855158 700.348676,115.885473 C700.348676,151.942071 671.044023,181.259138 635.010948,181.259138 Z M799.832106,557.32363 C740.576889,557.32363 692.376602,509.091195 692.376602,449.817494 C692.376602,390.543794 740.576889,342.326691 799.832106,342.326691 C859.085135,342.326691 907.285421,390.543794 907.285421,449.817494 C907.285421,509.093385 859.085135,557.32363 799.832106,557.32363 Z M959.115947,398.172583 C929.058096,398.172583 904.618575,373.722346 904.618575,343.656199 C904.618575,313.590051 929.073422,289.139814 959.115947,289.139814 C989.158471,289.139814 1013.61332,313.603193 1013.61332,343.656199 C1013.61332,373.709204 989.171609,398.172583 959.115947,398.172583 Z M1049.00267,310.357179 C1018.94701,310.357179 994.505301,285.8938 994.505301,255.840794 C994.505301,225.787788 1018.94701,201.324409 1049.00267,201.324409 C1079.06052,201.324409 1103.50223,225.774647 1103.50223,255.840794 C1103.50004,285.909132 1079.05833,310.357179 1049.00267,310.357179 Z" id="Shape"></path>
            <path d="M657,68.8293461 C650.313952,65.8096757 642.942155,64 635.086818,64 C627.165543,64 619.725611,65.8479532 613,68.9186603 C624.862131,69.8054226 632.691093,74.6709197 634.587892,76 C636.552825,74.6454014 644.665318,69.5438596 657,68.8293461 Z" id="Path"></path>
            <circle id="Oval" cx="959" cy="344" r="41"></circle>
            <path d="M601.707372,77 C590.360062,86.5058461 583,100.568033 583,116.460619 C583,127.008352 586.223593,136.804703 591.67671,145 C591.435324,118.933188 620,91.2085314 620,91.2085314 C618.951071,85.5032764 608.689995,80.315688 601.707372,77 Z" id="Path"></path>
            <circle id="Oval" cx="1049" cy="256" r="41"></circle>
            <circle id="Oval" cx="727.5" cy="255.5" r="21.5"></circle>
            <circle id="Oval" cx="959" cy="173" r="41"></circle>
            <path d="M800.001094,356 C748.172151,356 706,398.156568 706,449.993436 C706,501.830303 748.172151,544 800.001094,544 C851.827849,544 894,501.832491 894,449.993436 C894,398.15438 851.825661,356 800.001094,356 Z M800.001094,522.733537 C759.890284,522.733537 727.254571,490.086594 727.254571,449.978119 C727.254571,409.871831 759.890284,377.238018 800.001094,377.238018 C840.109716,377.238018 872.745429,409.874019 872.745429,449.978119 C872.745429,490.086594 840.109716,522.733537 800.001094,522.733537 Z" id="Shape"></path>
            <path d="M800.501097,390 C767.688186,390 741,416.686936 741,449.49342 C741,482.299904 767.688186,509 800.501097,509 C833.311814,509 860,482.313064 860,449.49342 C859.986838,416.684742 833.311814,390 800.501097,390 Z" id="Path"></path>
            <path d="M492.283925,434.036128 L492.283925,385 L452.716075,385 L452.716075,434.036128 C452.716075,437.724647 449.721456,440.720887 446.032243,440.720887 L397,440.720887 L397,480.279113 L446.032243,480.279113 C449.721456,480.279113 452.716075,483.273169 452.716075,486.963872 L452.716075,536 L492.283925,536 L492.283925,486.963872 C492.283925,483.275353 495.278544,480.279113 498.967757,480.279113 L548,480.279113 L548,440.720887 L498.967757,440.720887 C495.278544,440.718703 492.283925,437.724647 492.283925,434.036128 Z" id="Path"></path>
        </g>
    </g>
</svg>