<?xml version="1.0" encoding="UTF-8"?>
<svg width="1056px" height="710px" viewBox="0 0 1056 710" version="1.1" xmlns="http://www.w3.org/2000/svg" xmlns:xlink="http://www.w3.org/1999/xlink">
    <title>Group 7</title>
    <g id="Page-1" stroke="none" stroke-width="1" fill="none" fill-rule="evenodd">
        <g id="Group-7" transform="translate(1.000000, 1.000000)" fill-rule="nonzero" stroke="#FFFFFF" stroke-width="10">
            <g id="xbox_controller">
                <path d="M554.930664,63 C549.047264,65.7503842 539.904143,70.1688255 539,75.0674926 C539,75.0674926 563.938811,98.9696409 562.842376,121 C567.93442,113.95305 571,105.392661 571,96.1082954 C570.998151,82.7383723 564.661755,70.927364 554.930664,63 Z" id="Path"></path>
                <path d="M527.394643,86 C505.583876,103.090077 498.379621,117.448544 496,125.527255 C503.892711,134.348773 515.165936,140 527.805173,140 C540.10109,140 551.139986,134.68792 559,126.271905 C556.854708,118.362768 549.895681,103.631976 527.394643,86 Z" id="Path"></path>
                <path d="M919.043564,102.605548 C889.50601,83.7132182 910.81557,72.9199386 880.242248,49.5335905 C849.670744,26.1472424 725.596664,-13.4390239 704.0109,4.55159342 C682.425136,22.5422107 658.159095,26.1363346 658.159095,26.1363346 L527.121748,26.1363346 L526.900057,26.1363346 L395.851808,26.1363346 C395.851808,26.1363346 371.574864,22.5422107 350,4.55159342 C328.425141,-13.4390239 204.338342,26.1363346 173.768654,49.5335905 C143.19715,72.9199386 164.504893,83.7132182 134.967339,102.605548 C105.429785,121.497878 28.105176,382.365464 28.105176,382.365464 C28.105176,382.365464 -72.595077,672.920478 107.230567,708 C107.230567,708 151.292493,680.119634 189.047138,635.137636 C226.814503,590.155639 300.533913,526.29222 340.10206,525.390508 C378.803433,524.512429 520.705439,525.355966 526.889155,525.390508 L526.889155,525.390508 C526.889155,525.390508 526.932766,525.390508 527,525.390508 C527.078137,525.390508 527.112662,525.390508 527.112662,525.390508 L527.112662,525.390508 C533.296378,525.355966 675.198384,524.512429 713.899757,525.390508 C753.457001,526.29222 827.189131,590.155639 864.954679,635.137636 C902.720227,680.119634 946.769433,708 946.769433,708 C1126.59508,672.920478 1025.89482,382.365464 1025.89482,382.365464 C1025.89482,382.365464 948.581118,121.497878 919.043564,102.605548 Z M795.990715,97.8315624 C820.936365,97.8315624 841.219242,118.136454 841.219242,143.080801 C841.219242,168.025148 820.923645,188.330039 795.990715,188.330039 C771.057785,188.330039 750.762188,168.036056 750.762188,143.080801 C750.762188,118.125546 771.045065,97.8315624 795.990715,97.8315624 Z M726.730558,167.090712 C751.67439,167.090712 771.959085,187.384696 771.959085,212.339951 C771.959085,237.295206 751.663487,257.589189 726.730558,257.589189 C701.795811,257.589189 681.500213,237.284298 681.500213,212.339951 C681.500213,187.395603 701.784908,167.090712 726.730558,167.090712 Z M603.554143,183.390619 C619.512236,183.390619 632.490225,196.385458 632.490225,212.350858 C632.490225,228.316259 619.512236,241.30019 603.554143,241.30019 C587.596051,241.30019 574.616245,228.316259 574.616245,212.350858 C574.616245,196.385458 587.596051,183.390619 603.554143,183.390619 Z M169.105882,210.538344 C169.105882,161.340477 209.119228,121.319717 258.296393,121.319717 C307.47174,121.319717 347.474183,161.340477 347.474183,210.538344 C347.474183,259.738028 307.47174,299.769697 258.296393,299.769697 C209.119228,299.767879 169.105882,259.738028 169.105882,210.538344 Z M465.911505,404.106551 C465.911505,407.1771 463.420211,409.669535 460.351068,409.669535 L419.559988,409.669535 L419.559988,450.492019 C419.559988,453.56075 417.068694,456.055003 413.99955,456.055003 L369.961247,456.055003 C366.892104,456.055003 364.40081,453.562568 364.40081,450.492019 L364.40081,409.669535 L323.60973,409.669535 C320.540586,409.669535 318.049292,407.178918 318.049292,404.106551 L318.049292,360.048082 C318.049292,356.977533 320.540586,354.486916 323.60973,354.486916 L364.40081,354.486916 L364.40081,313.664431 C364.40081,310.593882 366.892104,308.101447 369.961247,308.101447 L413.99955,308.101447 C417.068694,308.101447 419.559988,310.593882 419.559988,313.664431 L419.559988,354.486916 L460.351068,354.486916 C463.420211,354.486916 465.911505,356.977533 465.911505,360.048082 L465.911505,404.106551 Z M452.501038,241.291101 C436.542945,241.291101 423.564957,228.307169 423.564957,212.341769 C423.564957,196.376368 436.542945,183.379711 452.501038,183.379711 C468.459131,183.379711 481.43712,196.37455 481.43712,212.341769 C481.43712,228.308987 468.446411,241.291101 452.501038,241.291101 Z M527.009086,150.44721 C497.10447,150.44721 472.783916,126.102792 472.783916,96.1863008 C472.783916,66.2788993 497.11719,41.9362997 527.009086,41.9362997 C556.900981,41.9362997 581.234256,66.2807173 581.234256,96.1863008 C581.234256,126.1137 556.913701,150.44721 527.009086,150.44721 Z M663.797669,462.585147 C614.620505,462.585147 574.618062,422.55166 574.618062,373.353794 C574.618062,324.155927 614.620505,284.135167 663.797669,284.135167 C712.973017,284.135167 752.97546,324.155927 752.97546,373.353794 C752.97546,422.553478 712.973017,462.585147 663.797669,462.585147 Z M795.990715,330.487912 C771.045065,330.487912 750.762188,310.193929 750.762188,285.238674 C750.762188,260.283419 771.057785,239.989435 795.990715,239.989435 C820.923645,239.989435 841.219242,260.294326 841.219242,285.238674 C841.219242,310.183021 820.934548,330.487912 795.990715,330.487912 Z M870.589619,257.600097 C845.645787,257.600097 825.361092,237.295206 825.361092,212.350858 C825.361092,187.406511 845.645787,167.10162 870.589619,167.10162 C895.535269,167.10162 915.819964,187.395603 915.819964,212.350858 C915.818147,237.307931 895.533452,257.600097 870.589619,257.600097 Z" id="Shape"></path>
                <path d="M545,57.6220096 C539.377641,55.3572568 533.17863,54 526.573006,54 C519.911934,54 513.655627,55.3859649 508,57.6889952 C517.974974,58.354067 524.55842,62.0031898 526.153454,63 C527.805785,61.984051 534.627654,58.1578947 545,57.6220096 Z" id="Path"></path>
                <path d="M499.168139,64 C489.967618,71.9681357 484,83.755557 484,97.0772838 C484,105.918765 486.613724,114.130412 491.03517,121 C490.839452,99.1498779 514,75.9100925 514,75.9100925 C513.149517,71.1277464 504.829725,66.7793267 499.168139,64 Z" id="Path"></path>
            </g>
        </g>
    </g>
</svg>